<?xml version="1.0" standalone="no"?>
<!DOCTYPE svg PUBLIC "-//W3C//DTD SVG 1.1//EN" "http://www.w3.org/Graphics/SVG/1.1/DTD/svg11.dtd" >
<svg>
<metadata>
Created by FontForge 20110222 at Mon Feb 16 09:26:01 2015
 By www-data
Instruction (c) (Neale Davidson). 2012-2015. All Rights Reserved
</metadata>
<defs>
<font id="Instruction" horiz-adv-x="1200" >
  <font-face 
    font-family="Instruction"
    font-weight="400"
    font-stretch="normal"
    units-per-em="2048"
    panose-1="2 0 5 0 0 0 0 0 0 0"
    ascent="1638"
    descent="-410"
    x-height="1500"
    cap-height="1500"
    bbox="0 -400 1500 2300"
    underline-thickness="150"
    underline-position="-142"
    unicode-range="U+0020-2122"
  />
    <missing-glyph />
    <glyph glyph-name="space" unicode=" " 
 />
    <glyph glyph-name="space" unicode="&#xa0;" 
 />
    <glyph glyph-name="exclam" unicode="!" 
d="M300 400q0 -41 -29.5 -70.5t-70.5 -29.5t-70.5 29.5t-29.5 70.5v1000q0 41 29.5 70.5t70.5 29.5t70.5 -29.5t29.5 -70.5v-1000zM270.5 170.5q29.5 -29.5 29.5 -70.5t-29.5 -70.5t-70.5 -29.5t-70.5 29.5t-29.5 70.5t29.5 70.5t70.5 29.5t70.5 -29.5z" />
    <glyph glyph-name="quotedbl" unicode="&#x22;" 
d="M100 1400q0 41 29.5 70.5t70.5 29.5t70.5 -29.5t29.5 -70.5v-300q0 -41 -29.5 -70.5t-70.5 -29.5t-70.5 29.5t-29.5 70.5v300zM500 1400q0 41 29.5 70.5t70.5 29.5t70.5 -29.5t29.5 -70.5v-300q0 -41 -29.5 -70.5t-70.5 -29.5t-70.5 29.5t-29.5 70.5v300z" />
    <glyph glyph-name="numbersign" unicode="#" 
d="M200 600v300h-100q-41 0 -70.5 29.5t-29.5 70.5t29.5 70.5t70.5 29.5h100v200q0 41 29.5 70.5t70.5 29.5t70.5 -29.5t29.5 -70.5v-200h200v200q0 41 29.5 70.5t70.5 29.5t70.5 -29.5t29.5 -70.5v-200h100q41 0 70.5 -29.5t29.5 -70.5t-29.5 -70.5t-70.5 -29.5h-100v-300
h100q41 0 70.5 -29.5t29.5 -70.5t-29.5 -70.5t-70.5 -29.5h-100v-200q0 -41 -29.5 -70.5t-70.5 -29.5t-70.5 29.5t-29.5 70.5v200h-200v-200q0 -41 -29.5 -70.5t-70.5 -29.5t-70.5 29.5t-29.5 70.5v200h-100q-41 0 -70.5 29.5t-29.5 70.5t29.5 70.5t70.5 29.5h100zM600 900
h-200v-300h200v300z" />
    <glyph glyph-name="dollar" unicode="$" 
d="M600 1350h75q135 0 230 -95t95 -230q0 -41 -29.5 -70.5t-70.5 -29.5t-70.5 29.5t-29.5 70.5q0 52 -36.5 88.5t-88.5 36.5h-75v-300h75q135 0 230 -95t95 -230v-75h-1q-8 -119 -94 -205q-95 -95 -230 -95h-75v-50q0 -41 -29.5 -70.5t-70.5 -29.5t-70.5 29.5t-29.5 70.5v50
h-75q-135 0 -230 95t-95 230q0 41 29.5 70.5t70.5 29.5t70.5 -29.5t29.5 -70.5q0 -52 36.5 -88.5t88.5 -36.5h75v300h-75q-135 0 -230 95t-95 230v50q0 135 95 230t230 95h75v50q0 41 29.5 70.5t70.5 29.5t70.5 -29.5t29.5 -70.5v-50zM600 350h75q52 0 89 37q27 27 34 63h2
v75q0 52 -36.5 88.5t-88.5 36.5h-75v-300zM400 1150h-75q-52 0 -88.5 -36.5t-36.5 -88.5v-50q0 -52 36.5 -88.5t88.5 -36.5h75v300z" />
    <glyph glyph-name="percent" unicode="%" 
d="M763.5 336.5q36.5 36.5 36.5 88.5t-36.5 88.5t-88.5 36.5t-88.5 -36.5t-36.5 -88.5t36.5 -88.5t88.5 -36.5t88.5 36.5zM413.5 986.5q36.5 36.5 36.5 88.5t-36.5 88.5t-88.5 36.5t-88.5 -36.5t-36.5 -88.5t36.5 -88.5t88.5 -36.5t88.5 36.5zM618 745q28 5 57 5
q135 0 230 -95t95 -230t-95 -230t-230 -95t-230 95q-60 60 -82 136l-143 -231q-20 -41 -49.5 -70.5t-70.5 -29.5t-70.5 29.5t-29.5 70.5t40 100l342 555q-28 -5 -57 -5q-135 0 -230 95t-95 230t95 230t230 95t230 -95q60 -60 82 -136l143 231q20 41 49.5 70.5t70.5 29.5
t70.5 -29.5t29.5 -70.5t-40 -100z" />
    <glyph glyph-name="ampersand" unicode="&#x26;" 
d="M584 916q66 66 66 159t-66 159t-159 66t-159 -66t-66 -159t66 -159t159 -66t159 66zM787 850h113q41 0 70.5 -29.5t29.5 -70.5t-29.5 -70.5t-70.5 -29.5h-150v-450h150q41 0 70.5 -29.5t29.5 -70.5t-29.5 -70.5t-70.5 -29.5h-475q-176 0 -300.5 124.5t-124.5 300.5
t125 301q12 12 26 24q-14 12 -26 25q-125 124 -125 300t124.5 300.5t300.5 124.5t300.5 -124.5t124.5 -300.5q0 -126 -63 -225zM450 200h100v450h-124q-94 0 -160 -66t-66 -159t66 -159t184 -66z" />
    <glyph glyph-name="quotesingle" unicode="'" 
d="M100 1400q0 41 29.5 70.5t70.5 29.5t70.5 -29.5t29.5 -70.5v-300q0 -41 -29.5 -70.5t-70.5 -29.5t-70.5 29.5t-29.5 70.5v300z" />
    <glyph glyph-name="parenleft" unicode="(" 
d="M600 1700h150q41 0 70.5 -29.5t29.5 -70.5t-29.5 -70.5t-70.5 -29.5h-150q-124 0 -212 -219.5t-88 -530.5t88 -530.5t212 -219.5h150q41 0 70.5 -29.5t29.5 -70.5t-29.5 -70.5t-70.5 -29.5h-150q-207 0 -353.5 278t-146.5 672t146.5 672t353.5 278z" />
    <glyph glyph-name="parenright" unicode=")" 
d="M703.5 1422q146.5 -278 146.5 -672t-146.5 -672t-353.5 -278h-150q-41 0 -70.5 29.5t-29.5 70.5t29.5 70.5t70.5 29.5h150q124 0 212 219.5t88 530.5t-88 530.5t-212 219.5h-150q-41 0 -70.5 29.5t-29.5 70.5t29.5 70.5t70.5 29.5h150q207 0 353.5 -278z" />
    <glyph glyph-name="asterisk" unicode="*" 
d="M486 930l-95 -131q-24 -34 -65 -40q-8 -2 -17 -2q-31 0 -58 20q-33 24 -39 65q-2 9 -2 17q0 31 19 57l96 131l-156 51q-39 12 -57 50q-12 22 -12 46q0 15 5 30q13 39 50 58q22 11 46 11q15 0 30 -5l155 -50v162q0 41 29.5 70.5t70.5 29.5t70.5 -29.5t29.5 -70.5v-162
l155 50q15 5 30 5q24 0 46 -11q37 -19 50 -58q5 -15 5 -30q0 -24 -11 -46q-19 -38 -58 -50l-156 -51l96 -131q19 -26 19 -57q0 -8 -1 -17q-7 -41 -40 -65q-27 -20 -58 -20q-9 0 -17 2q-41 6 -65 40z" />
    <glyph glyph-name="plus" unicode="+" 
d="M400 650h-300q-41 0 -70.5 29.5t-29.5 70.5t29.5 70.5t70.5 29.5h300v350q0 41 29.5 70.5t70.5 29.5t70.5 -29.5t29.5 -70.5v-350h300q41 0 70.5 -29.5t29.5 -70.5t-29.5 -70.5t-70.5 -29.5h-300v-350q0 -41 -29.5 -70.5t-70.5 -29.5t-70.5 29.5t-29.5 70.5v350z" />
    <glyph glyph-name="comma" unicode="," 
d="M100 100q0 41 29.5 70.5t70.5 29.5t70.5 -29.5t29.5 -70.5v-300q0 -41 -29.5 -70.5t-70.5 -29.5t-70.5 29.5t-29.5 70.5v300z" />
    <glyph glyph-name="hyphen" unicode="-" 
d="M100 650q-41 0 -70.5 29.5t-29.5 70.5t29.5 70.5t70.5 29.5h800q41 0 70.5 -29.5t29.5 -70.5t-29.5 -70.5t-70.5 -29.5h-800z" />
    <glyph glyph-name="hyphen" unicode="&#xad;" 
d="M100 650q-41 0 -70.5 29.5t-29.5 70.5t29.5 70.5t70.5 29.5h800q41 0 70.5 -29.5t29.5 -70.5t-29.5 -70.5t-70.5 -29.5h-800z" />
    <glyph glyph-name="period" unicode="." 
d="M270.5 170.5q29.5 -29.5 29.5 -70.5t-29.5 -70.5t-70.5 -29.5t-70.5 29.5t-29.5 70.5t29.5 70.5t70.5 29.5t70.5 -29.5z" />
    <glyph glyph-name="slash" unicode="/" 
d="M220 100q-20 -41 -49.5 -70.5t-70.5 -29.5t-70.5 29.5t-29.5 70.5t40 100l740 1200q20 41 49.5 70.5t70.5 29.5t70.5 -29.5t29.5 -70.5t-40 -100z" />
    <glyph glyph-name="zero" unicode="0" 
d="M319 261q78 -61 181 -61q124 0 212 88t88 212v500q0 19 -2 37zM202 463l479 776q-78 61 -181 61q-124 0 -212 -88t-88 -212v-500q0 -19 2 -37zM932 1254q68 -113 68 -254v-500q0 -207 -146.5 -353.5t-353.5 -146.5q-161 0 -286 89q-18 -34 -43 -59q-30 -30 -71 -30
t-70.5 29.5t-29.5 70.5t40 100l28 46q-68 113 -68 254v500q0 207 146.5 353.5t353.5 146.5q161 0 286 -89q18 34 44 60q29 29 70 29t70.5 -29.5t29.5 -70.5t-40 -100z" />
    <glyph glyph-name="one" unicode="1" 
d="M400 200v1100h-300q-41 0 -70.5 29.5t-29.5 70.5t29.5 70.5t70.5 29.5h400q41 0 70.5 -29.5t29.5 -70.5v-1200h300q41 0 70.5 -29.5t29.5 -70.5t-29.5 -70.5t-70.5 -29.5h-800q-41 0 -70.5 29.5t-29.5 70.5t29.5 70.5t70.5 29.5h300z" />
    <glyph glyph-name="two" unicode="2" 
d="M0 425q0 176 124.5 300.5t300.5 124.5h150q93 0 159 66t66 159t-66 159t-159 66h-150q-93 0 -159 -66t-66 -159q0 -41 -29.5 -70.5t-70.5 -29.5t-70.5 29.5t-29.5 70.5q0 176 124.5 300.5t300.5 124.5h150q176 0 300.5 -124.5t124.5 -300.5t-124.5 -300.5t-300.5 -124.5
h-150q-93 0 -159 -66t-66 -159v-225h700q41 0 70.5 -29.5t29.5 -70.5t-29.5 -70.5t-70.5 -29.5h-800q-41 0 -70.5 29.5t-29.5 70.5v325z" />
    <glyph glyph-name="three" unicode="3" 
d="M0 425q0 41 29.5 70.5t70.5 29.5t70.5 -29.5t29.5 -70.5q0 -93 66 -159t159 -66h150q93 0 159 66t66 159t-66 159t-159 66h-175q-41 0 -70.5 29.5t-29.5 70.5t29.5 70.5t70.5 29.5h175q93 0 159 66t66 159t-66 159t-159 66h-150q-93 0 -159 -66t-66 -159
q0 -41 -29.5 -70.5t-70.5 -29.5t-70.5 29.5t-29.5 70.5q0 176 124.5 300.5t300.5 124.5h150q176 0 300.5 -124.5t124.5 -300.5t-124 -300q-13 -13 -27 -25q14 -12 27 -24q124 -125 124 -301t-124.5 -300.5t-300.5 -124.5h-150q-176 0 -300.5 124.5t-124.5 300.5z" />
    <glyph glyph-name="four" unicode="4" 
d="M800 1400v-800h100q41 0 70.5 -29.5t29.5 -70.5t-29.5 -70.5t-70.5 -29.5h-100v-300q0 -41 -29.5 -70.5t-70.5 -29.5t-70.5 29.5t-29.5 70.5v300h-500q-41 0 -70.5 29.5t-29.5 70.5t30 71l12 22l547 821q19 33 37 53l4 4q29 29 70 29t71 -29q29 -30 29 -71zM287 600h313
v470z" />
    <glyph glyph-name="five" unicode="5" 
d="M200 1300v-300h375q176 0 300.5 -124.5t124.5 -300.5v-150q0 -176 -124.5 -300.5t-300.5 -124.5h-150q-176 0 -300.5 124.5t-124.5 300.5q0 41 29.5 70.5t70.5 29.5t70.5 -29.5t29.5 -70.5q0 -93 66 -159t159 -66h150q93 0 159 66t66 159v151q0 92 -66 158t-159 66h-475
q-41 0 -70.5 29.5t-29.5 70.5v500q0 41 29.5 70.5t70.5 29.5h800q41 0 70.5 -29.5t29.5 -70.5t-29.5 -70.5t-70.5 -29.5h-700z" />
    <glyph glyph-name="six" unicode="6" 
d="M575 850q176 0 300.5 -124.5t124.5 -300.5t-124.5 -300.5t-300.5 -124.5h-150q-176 0 -300.5 124.5t-124.5 300.5v650q0 176 124.5 300.5t300.5 124.5h150q176 0 300.5 -124.5t124.5 -300.5q0 -41 -29.5 -70.5t-70.5 -29.5t-70.5 29.5t-29.5 70.5q0 93 -66 159t-159 66
h-150q-93 0 -159 -66t-66 -159v-288q99 63 225 63h150zM425 650q-93 0 -159 -66t-66 -159t66 -159t159 -66h150q93 0 159 66t66 159t-66 159t-159 66h-150z" />
    <glyph glyph-name="seven" unicode="7" 
d="M441 850l277 450h-618q-41 0 -70.5 29.5t-29.5 70.5t29.5 70.5t70.5 29.5h800q41 0 70.5 -29.5t29.5 -70.5t-40 -100l-277 -450h117q41 0 70.5 -29.5t29.5 -70.5t-29.5 -70.5t-70.5 -29.5h-241l-339 -550q-20 -41 -49.5 -70.5t-70.5 -29.5t-70.5 29.5t-29.5 70.5t40 100
l277 450h-117q-41 0 -70.5 29.5t-29.5 70.5t29.5 70.5t70.5 29.5h241z" />
    <glyph glyph-name="eight" unicode="8" 
d="M425 650q-93 0 -159 -66t-66 -159t66 -159t159 -66h150q93 0 159 66t66 159t-66 159t-159 66h-150zM849 750q14 -12 27 -24q124 -125 124 -301t-124.5 -300.5t-300.5 -124.5h-150q-176 0 -300.5 124.5t-124.5 300.5t125 301q12 12 26 24q-14 12 -26 25q-125 124 -125 300
t124.5 300.5t300.5 124.5h150q176 0 300.5 -124.5t124.5 -300.5t-124 -300q-13 -13 -27 -25zM800 1075q0 93 -66 159t-159 66h-150q-93 0 -159 -66t-66 -159t66 -159t159 -66h150q93 0 159 66t66 159z" />
    <glyph glyph-name="nine" unicode="9" 
d="M425 650q-176 0 -300.5 124.5t-124.5 300.5t124.5 300.5t300.5 124.5h150q176 0 300.5 -124.5t124.5 -300.5v-650q0 -176 -124.5 -300.5t-300.5 -124.5h-150q-176 0 -300.5 124.5t-124.5 300.5q0 41 29.5 70.5t70.5 29.5t70.5 -29.5t29.5 -70.5q0 -93 66 -159t159 -66
h150q93 0 159 66t66 159v288q-99 -63 -225 -63h-150zM575 850q93 0 159 66t66 159t-66 159t-159 66h-150q-93 0 -159 -66t-66 -159t66 -159t159 -66h150z" />
    <glyph glyph-name="colon" unicode=":" 
d="M270.5 170.5q29.5 -29.5 29.5 -70.5t-29.5 -70.5t-70.5 -29.5t-70.5 29.5t-29.5 70.5t29.5 70.5t70.5 29.5t70.5 -29.5zM270.5 770.5q29.5 -29.5 29.5 -70.5t-29.5 -70.5t-70.5 -29.5t-70.5 29.5t-29.5 70.5t29.5 70.5t70.5 29.5t70.5 -29.5z" />
    <glyph glyph-name="semicolon" unicode=";" 
d="M270.5 770.5q29.5 -29.5 29.5 -70.5t-29.5 -70.5t-70.5 -29.5t-70.5 29.5t-29.5 70.5t29.5 70.5t70.5 29.5t70.5 -29.5zM100 100q0 41 29.5 70.5t70.5 29.5t70.5 -29.5t29.5 -70.5v-300q0 -41 -29.5 -70.5t-70.5 -29.5t-70.5 29.5t-29.5 70.5v300z" />
    <glyph glyph-name="semicolon" unicode="&#x37e;" 
d="M270.5 770.5q29.5 -29.5 29.5 -70.5t-29.5 -70.5t-70.5 -29.5t-70.5 29.5t-29.5 70.5t29.5 70.5t70.5 29.5t70.5 -29.5zM100 100q0 41 29.5 70.5t70.5 29.5t70.5 -29.5t29.5 -70.5v-300q0 -41 -29.5 -70.5t-70.5 -29.5t-70.5 29.5t-29.5 70.5v300z" />
    <glyph glyph-name="less" unicode="&#x3c;" 
d="M870 320q30 -29 30 -70t-29.5 -70.5t-70.5 -29.5t-71 29l-500 500q-29 30 -29 71t30 71l499 499q30 30 71 30t70.5 -29.5t29.5 -70.5t-30 -71l-429 -429z" />
    <glyph glyph-name="equal" unicode="=" 
d="M100 900q-41 0 -70.5 29.5t-29.5 70.5t29.5 70.5t70.5 29.5h800q41 0 70.5 -29.5t29.5 -70.5t-29.5 -70.5t-70.5 -29.5h-800zM100 400q-41 0 -70.5 29.5t-29.5 70.5t29.5 70.5t70.5 29.5h800q41 0 70.5 -29.5t29.5 -70.5t-29.5 -70.5t-70.5 -29.5h-800z" />
    <glyph glyph-name="greater" unicode="&#x3e;" 
d="M660 750l-430 429q-30 30 -30 71t29.5 70.5t70.5 29.5t71 -30l500 -499q29 -30 29 -71t-29 -71l-500 -500q-30 -29 -71 -29t-70.5 29.5t-29.5 70.5t30 70z" />
    <glyph glyph-name="question" unicode="?" 
d="M100 425q0 176 124.5 300.5t300.5 124.5h50q93 0 159 66t66 159t-66 159t-159 66h-150q-93 0 -159 -66t-66 -159q0 -41 -29.5 -70.5t-70.5 -29.5t-70.5 29.5t-29.5 70.5q0 176 124.5 300.5t300.5 124.5h150q176 0 300.5 -124.5t124.5 -300.5t-124.5 -300.5t-300.5 -124.5
h-50q-93 0 -159 -66t-66 -159v-25q0 -41 -29.5 -70.5t-70.5 -29.5t-70.5 29.5t-29.5 70.5v25zM270.5 170.5q29.5 -29.5 29.5 -70.5t-29.5 -70.5t-70.5 -29.5t-70.5 29.5t-29.5 70.5t29.5 70.5t70.5 29.5t70.5 -29.5z" />
    <glyph glyph-name="at" unicode="@" 
d="M756 644q44 44 44 106t-44 106t-106 44t-106 -44t-44 -106t44 -106t106 -44t106 44zM792 1071q-18 79 -80 141q-88 88 -212 88t-212 -88t-88 -212v-500q0 -124 88 -212t212 -88h400q41 0 70.5 -29.5t29.5 -70.5t-29.5 -70.5t-70.5 -29.5h-400q-207 0 -353.5 146.5
t-146.5 353.5v500q0 207 146.5 353.5t353.5 146.5t353.5 -146.5t146.5 -353.5v-300l-3 1q-15 -114 -99 -198q-103 -103 -248 -103t-247.5 102.5t-102.5 247.5t102.5 247.5t247.5 102.5q77 0 142 -29z" />
    <glyph glyph-name="A" unicode="A" 
d="M265 300l-55 -180q-20 -61 -44.5 -90.5t-65.5 -29.5t-70.5 29.5t-29.5 70.5q0 34 20 80l380 1240h2q5 28 28 50q29 30 70 30t71 -30q22 -22 27 -50h2l380 -1240q20 -46 20 -80q0 -41 -29.5 -70.5t-70.5 -29.5t-65.5 29.5t-44.5 90.5l-55 180h-470zM674 500l-174 572
l-174 -572h348z" />
    <glyph glyph-name="B" unicode="B" 
d="M575 0h-475q-41 0 -70.5 29.5t-29.5 70.5v1300q0 41 29.5 70.5t70.5 29.5h475q176 0 300.5 -124.5t124.5 -300.5t-124 -300q-13 -13 -27 -25q14 -12 27 -24q124 -125 124 -301t-124.5 -300.5t-300.5 -124.5zM575 1300h-375v-450h375q93 0 159 66t66 159t-66 159t-159 66z
M575 650h-375v-450h375q93 0 159 66t66 159t-66 159t-159 66z" />
    <glyph glyph-name="C" unicode="C" 
d="M800 500q0 41 29.5 70.5t70.5 29.5t70.5 -29.5t29.5 -70.5q0 -207 -146.5 -353.5t-353.5 -146.5t-353.5 146.5t-146.5 353.5v500q0 207 146.5 353.5t353.5 146.5t353.5 -146.5t146.5 -353.5q0 -41 -29.5 -70.5t-70.5 -29.5t-70.5 29.5t-29.5 70.5q0 124 -88 212t-212 88
t-212 -88t-88 -212v-500q0 -124 88 -212t212 -88t212 88t88 212z" />
    <glyph glyph-name="D" unicode="D" 
d="M100 0q-41 0 -70.5 29.5t-29.5 70.5v1300q0 41 29.5 70.5t70.5 29.5h400q207 0 353.5 -146.5t146.5 -353.5v-500q0 -207 -146.5 -353.5t-353.5 -146.5h-400zM200 1300v-1100h300q124 0 212 88t88 212v500q0 124 -88 212t-212 88h-300z" />
    <glyph glyph-name="E" unicode="E" 
d="M900 200q41 0 70.5 -29.5t29.5 -70.5t-29.5 -70.5t-70.5 -29.5h-800q-41 0 -70.5 29.5t-29.5 70.5v1300q0 41 29.5 70.5t70.5 29.5h800q41 0 70.5 -29.5t29.5 -70.5t-29.5 -70.5t-70.5 -29.5h-700v-450h600q41 0 70.5 -29.5t29.5 -70.5t-29.5 -70.5t-70.5 -29.5h-600
v-450h700z" />
    <glyph glyph-name="F" unicode="F" 
d="M200 100q0 -41 -29.5 -70.5t-70.5 -29.5t-70.5 29.5t-29.5 70.5v1300q0 41 29.5 70.5t70.5 29.5h800q41 0 70.5 -29.5t29.5 -70.5t-29.5 -70.5t-70.5 -29.5h-700v-450h600q41 0 70.5 -29.5t29.5 -70.5t-29.5 -70.5t-70.5 -29.5h-600v-550z" />
    <glyph glyph-name="G" unicode="G" 
d="M1000 100q0 -41 -29.5 -70.5t-70.5 -29.5t-70 30q-30 29 -30 69q-129 -99 -300 -99q-207 0 -353.5 146.5t-146.5 353.5v500q0 207 146.5 353.5t353.5 146.5t353.5 -146.5t146.5 -353.5q0 -41 -29.5 -70.5t-70.5 -29.5t-70.5 29.5t-29.5 70.5q0 124 -88 212t-212 88
t-212 -88t-88 -212v-500q0 -124 88 -212t212 -88t212 88t88 212v50h-350q-41 0 -70.5 29.5t-29.5 70.5t29.5 70.5t70.5 29.5h450q41 0 70.5 -29.5t29.5 -70.5v-550z" />
    <glyph glyph-name="H" unicode="H" 
d="M800 650h-600v-550q0 -41 -29.5 -70.5t-70.5 -29.5t-70.5 29.5t-29.5 70.5v1300q0 41 29.5 70.5t70.5 29.5t70.5 -29.5t29.5 -70.5v-550h600v550q0 41 29.5 70.5t70.5 29.5t70.5 -29.5t29.5 -70.5v-1300q0 -41 -29.5 -70.5t-70.5 -29.5t-70.5 29.5t-29.5 70.5v550z" />
    <glyph glyph-name="I" unicode="I" 
d="M400 200v1100h-300q-41 0 -70.5 29.5t-29.5 70.5t29.5 70.5t70.5 29.5h800q41 0 70.5 -29.5t29.5 -70.5t-29.5 -70.5t-70.5 -29.5h-300v-1100h300q41 0 70.5 -29.5t29.5 -70.5t-29.5 -70.5t-70.5 -29.5h-800q-41 0 -70.5 29.5t-29.5 70.5t29.5 70.5t70.5 29.5h300z" />
    <glyph glyph-name="J" unicode="J" 
d="M29.5 570.5q29.5 29.5 70.5 29.5t70.5 -29.5t29.5 -70.5q0 -124 88 -212t212 -88t212 88t88 212v900q0 41 29.5 70.5t70.5 29.5t70.5 -29.5t29.5 -70.5v-900q0 -207 -146.5 -353.5t-353.5 -146.5t-353.5 146.5t-146.5 353.5q0 41 29.5 70.5z" />
    <glyph glyph-name="K" unicode="K" 
d="M390 718l-190 -203v-415q0 -41 -29.5 -70.5t-70.5 -29.5t-70.5 29.5t-29.5 70.5v1300q0 41 29.5 70.5t70.5 29.5t70.5 -29.5t29.5 -70.5v-606l600 641q13 19 30 36q29 29 70 29t70.5 -29.5t29.5 -70.5t-29 -70q-21 -21 -36 -30l-398 -426q7 -11 13 -24l410 -650
q40 -59 40 -100t-29.5 -70.5t-70.5 -29.5t-70.5 29.5t-49.5 70.5z" />
    <glyph glyph-name="L" unicode="L" 
d="M200 1400v-1200h700q41 0 70.5 -29.5t29.5 -70.5t-29.5 -70.5t-70.5 -29.5h-800q-41 0 -70.5 29.5t-29.5 70.5v1300q0 41 29.5 70.5t70.5 29.5t70.5 -29.5t29.5 -70.5z" />
    <glyph glyph-name="M" unicode="M" 
d="M1000 1400v-1300q0 -41 -29.5 -70.5t-70.5 -29.5t-70.5 29.5t-29.5 70.5v633l-200 -653h-2q-5 -28 -27 -50q-30 -30 -71 -30t-70 30q-23 22 -28 50h-2l-200 653v-633q0 -41 -29.5 -70.5t-70.5 -29.5t-70.5 29.5t-29.5 70.5v1300q0 41 30 71q29 29 70 29t71 -29
q26 -27 39 -91l290 -952l290 952q26 68 45 91q24 29 65 29t70.5 -29.5t29.5 -70.5z" />
    <glyph glyph-name="N" unicode="N" 
d="M220 1400l580 -941v941q0 41 29.5 70.5t70.5 29.5t70.5 -29.5t29.5 -70.5v-1300q0 -41 -29.5 -70.5t-70.5 -29.5t-70.5 29.5t-49.5 70.5l-580 941v-941q0 -41 -29.5 -70.5t-70.5 -29.5t-70.5 29.5t-29.5 70.5v1300q0 41 29.5 70.5t70.5 29.5t70.5 -29.5t49.5 -70.5z" />
    <glyph glyph-name="O" unicode="O" 
d="M1000 500q0 -207 -146.5 -353.5t-353.5 -146.5t-353.5 146.5t-146.5 353.5v500q0 207 146.5 353.5t353.5 146.5t353.5 -146.5t146.5 -353.5v-500zM200 500q0 -124 88 -212t212 -88t212 88t88 212v500q0 124 -88 212t-212 88t-212 -88t-88 -212v-500z" />
    <glyph glyph-name="P" unicode="P" 
d="M575 650h-375v-550q0 -41 -29.5 -70.5t-70.5 -29.5t-70.5 29.5t-29.5 70.5v1300q0 41 29.5 70.5t70.5 29.5h475q176 0 300.5 -124.5t124.5 -300.5t-124.5 -300.5t-300.5 -124.5zM575 1300h-375v-450h375q93 0 159 66t66 159t-66 159t-159 66z" />
    <glyph glyph-name="Q" unicode="Q" 
d="M795 441q5 28 5 59v500q0 124 -88 212t-212 88t-212 -88t-88 -212v-500q0 -124 88 -212t212 -88q98 0 174 55l-134 195q-40 59 -40 100t29.5 70.5t70.5 29.5t70.5 -29.5t49.5 -70.5zM786 89q-125 -89 -286 -89q-207 0 -353.5 146.5t-146.5 353.5v500q0 207 146.5 353.5
t353.5 146.5t353.5 -146.5t146.5 -353.5v-500q0 -143 -70 -257l30 -43q40 -59 40 -100t-29.5 -70.5t-70.5 -29.5t-70 30q-26 25 -44 59z" />
    <glyph glyph-name="R" unicode="R" 
d="M575 1300h-375v-450h375q93 0 159 66t66 159t-66 159t-159 66zM440 650h-240v-550q0 -41 -29.5 -70.5t-70.5 -29.5t-70.5 29.5t-29.5 70.5v1300q0 41 29.5 70.5t70.5 29.5h475q176 0 300.5 -124.5t124.5 -300.5t-124 -300q-88 -88 -201 -114l285 -461q40 -59 40 -100
t-29.5 -70.5t-70.5 -29.5t-70.5 29.5t-49.5 70.5z" />
    <glyph glyph-name="S" unicode="S" 
d="M1000 1075q0 -41 -29.5 -70.5t-70.5 -29.5t-70.5 29.5t-29.5 70.5q0 93 -66 159t-159 66h-150q-93 0 -159 -66t-66 -159t66 -159t159 -66h150q176 0 300.5 -124.5t124.5 -300.5t-124.5 -300.5t-300.5 -124.5h-150q-176 0 -300.5 124.5t-124.5 300.5q0 41 29.5 70.5
t70.5 29.5t70.5 -29.5t29.5 -70.5q0 -93 66 -159t159 -66h150q93 0 159 66t66 159t-66 159t-159 66h-150q-176 0 -300.5 124.5t-124.5 300.5t124.5 300.5t300.5 124.5h150q176 0 300.5 -124.5t124.5 -300.5z" />
    <glyph glyph-name="T" unicode="T" 
d="M600 1300v-1200q0 -41 -29.5 -70.5t-70.5 -29.5t-70.5 29.5t-29.5 70.5v1200h-300q-41 0 -70.5 29.5t-29.5 70.5t29.5 70.5t70.5 29.5h800q41 0 70.5 -29.5t29.5 -70.5t-29.5 -70.5t-70.5 -29.5h-300z" />
    <glyph glyph-name="U" unicode="U" 
d="M0 1400q0 41 29.5 70.5t70.5 29.5t70.5 -29.5t29.5 -70.5v-900q0 -124 88 -212t212 -88t212 88t88 212v900q0 41 29.5 70.5t70.5 29.5t70.5 -29.5t29.5 -70.5v-900q0 -207 -146.5 -353.5t-353.5 -146.5t-353.5 146.5t-146.5 353.5v900z" />
    <glyph glyph-name="V" unicode="V" 
d="M500 0q-41 0 -70 30q-23 22 -28 50h-2l-380 1240q-20 46 -20 80q0 41 29.5 70.5t70.5 29.5t65.5 -29.5t44.5 -90.5l290 -952l290 952q20 61 44.5 90.5t65.5 29.5t70.5 -29.5t29.5 -70.5q0 -34 -20 -80l-380 -1240h-2q-5 -28 -27 -50q-30 -30 -71 -30z" />
    <glyph glyph-name="W" unicode="W" 
d="M500 751l-100 -651q0 -41 -29.5 -70.5t-70.5 -29.5t-70.5 29.5t-29.5 70.5l-195 1269q-5 14 -5 31q0 41 29.5 70.5t70.5 29.5t70.5 -29.5t29.5 -70.5l100 -650l100 650q0 41 29.5 70.5t70.5 29.5t70.5 -29.5t29.5 -70.5l100 -650l100 650q0 41 29.5 70.5t70.5 29.5
t70.5 -29.5t29.5 -70.5q0 -17 -5 -31l-195 -1269q0 -41 -29.5 -70.5t-70.5 -29.5t-70.5 29.5t-29.5 70.5z" />
    <glyph glyph-name="X" unicode="X" 
d="M500 554l-280 -454q-20 -41 -49.5 -70.5t-70.5 -29.5t-70.5 29.5t-29.5 70.5t40 100l339 550l-339 550q-40 59 -40 100t29.5 70.5t70.5 29.5t70.5 -29.5t49.5 -70.5l280 -454l280 454q20 41 49.5 70.5t70.5 29.5t70.5 -29.5t29.5 -70.5t-40 -100l-339 -550l339 -550
q40 -59 40 -100t-29.5 -70.5t-70.5 -29.5t-70.5 29.5t-49.5 70.5z" />
    <glyph glyph-name="Y" unicode="Y" 
d="M400 716l-21 34l-339 550q-40 59 -40 100t29.5 70.5t70.5 29.5t70.5 -29.5t49.5 -70.5l280 -454l280 454q20 41 49.5 70.5t70.5 29.5t70.5 -29.5t29.5 -70.5t-40 -100l-339 -550l-21 -34v-616q0 -41 -29.5 -70.5t-70.5 -29.5t-70.5 29.5t-29.5 70.5v616z" />
    <glyph glyph-name="Z" unicode="Z" 
d="M559 650l-277 -450h618q41 0 70.5 -29.5t29.5 -70.5t-29.5 -70.5t-70.5 -29.5h-800q-41 0 -70.5 29.5t-29.5 70.5t40 100l277 450h-117q-41 0 -70.5 29.5t-29.5 70.5t29.5 70.5t70.5 29.5h241l277 450h-618q-41 0 -70.5 29.5t-29.5 70.5t29.5 70.5t70.5 29.5h800
q41 0 70.5 -29.5t29.5 -70.5t-40 -100l-277 -450h117q41 0 70.5 -29.5t29.5 -70.5t-29.5 -70.5t-70.5 -29.5h-241z" />
    <glyph glyph-name="bracketleft" unicode="[" 
d="M100 1600q0 41 29.5 70.5t70.5 29.5h600q41 0 70.5 -29.5t29.5 -70.5t-29.5 -70.5t-70.5 -29.5h-500v-1500h500q41 0 70.5 -29.5t29.5 -70.5t-29.5 -70.5t-70.5 -29.5h-600q-41 0 -70.5 29.5t-29.5 70.5v1700z" />
    <glyph glyph-name="backslash" unicode="\" 
d="M40 1300q-40 59 -40 100t29.5 70.5t70.5 29.5t70.5 -29.5t49.5 -70.5l740 -1200q40 -59 40 -100t-29.5 -70.5t-70.5 -29.5t-70.5 29.5t-49.5 70.5z" />
    <glyph glyph-name="bracketright" unicode="]" 
d="M900 -100q0 -41 -29.5 -70.5t-70.5 -29.5h-600q-41 0 -70.5 29.5t-29.5 70.5t29.5 70.5t70.5 29.5h500v1500h-500q-41 0 -70.5 29.5t-29.5 70.5t29.5 70.5t70.5 29.5h600q41 0 70.5 -29.5t29.5 -70.5v-1700z" />
    <glyph glyph-name="asciicircum" unicode="^" 
d="M501 2060l-330 -330q-30 -30 -71 -30t-70.5 29.5t-29.5 70.5t30 71l400 400q29 29 70 29t71 -29l400 -400q29 -30 29 -71t-29.5 -70.5t-70.5 -29.5t-70 30z" />
    <glyph glyph-name="underscore" unicode="_" 
d="M900 -100q41 0 70.5 -29.5t29.5 -70.5t-29.5 -70.5t-70.5 -29.5h-800q-41 0 -70.5 29.5t-29.5 70.5t29.5 70.5t70.5 29.5h800z" />
    <glyph glyph-name="grave" unicode="`" 
d="M230 2130q-30 29 -30 70t29.5 70.5t70.5 29.5t71 -29l400 -400q29 -30 29 -71t-29.5 -70.5t-70.5 -29.5t-70 30z" />
    <glyph glyph-name="a" unicode="a" 
d="M265 300l-55 -180q-20 -61 -44.5 -90.5t-65.5 -29.5t-70.5 29.5t-29.5 70.5q0 34 20 80l380 1240h2q5 28 28 50q29 30 70 30t71 -30q22 -22 27 -50h2l380 -1240q20 -46 20 -80q0 -41 -29.5 -70.5t-70.5 -29.5t-65.5 29.5t-44.5 90.5l-55 180h-470zM674 500l-174 572
l-174 -572h348z" />
    <glyph glyph-name="b" unicode="b" 
d="M575 0h-475q-41 0 -70.5 29.5t-29.5 70.5v1300q0 41 29.5 70.5t70.5 29.5h475q176 0 300.5 -124.5t124.5 -300.5t-124 -300q-13 -13 -27 -25q14 -12 27 -24q124 -125 124 -301t-124.5 -300.5t-300.5 -124.5zM575 1300h-375v-450h375q93 0 159 66t66 159t-66 159t-159 66z
M575 650h-375v-450h375q93 0 159 66t66 159t-66 159t-159 66z" />
    <glyph glyph-name="c" unicode="c" 
d="M800 500q0 41 29.5 70.5t70.5 29.5t70.5 -29.5t29.5 -70.5q0 -207 -146.5 -353.5t-353.5 -146.5t-353.5 146.5t-146.5 353.5v500q0 207 146.5 353.5t353.5 146.5t353.5 -146.5t146.5 -353.5q0 -41 -29.5 -70.5t-70.5 -29.5t-70.5 29.5t-29.5 70.5q0 124 -88 212t-212 88
t-212 -88t-88 -212v-500q0 -124 88 -212t212 -88t212 88t88 212z" />
    <glyph glyph-name="d" unicode="d" 
d="M100 0q-41 0 -70.5 29.5t-29.5 70.5v1300q0 41 29.5 70.5t70.5 29.5h400q207 0 353.5 -146.5t146.5 -353.5v-500q0 -207 -146.5 -353.5t-353.5 -146.5h-400zM200 1300v-1100h300q124 0 212 88t88 212v500q0 124 -88 212t-212 88h-300z" />
    <glyph glyph-name="e" unicode="e" 
d="M900 200q41 0 70.5 -29.5t29.5 -70.5t-29.5 -70.5t-70.5 -29.5h-800q-41 0 -70.5 29.5t-29.5 70.5v1300q0 41 29.5 70.5t70.5 29.5h800q41 0 70.5 -29.5t29.5 -70.5t-29.5 -70.5t-70.5 -29.5h-700v-450h600q41 0 70.5 -29.5t29.5 -70.5t-29.5 -70.5t-70.5 -29.5h-600
v-450h700z" />
    <glyph glyph-name="f" unicode="f" 
d="M200 100q0 -41 -29.5 -70.5t-70.5 -29.5t-70.5 29.5t-29.5 70.5v1300q0 41 29.5 70.5t70.5 29.5h800q41 0 70.5 -29.5t29.5 -70.5t-29.5 -70.5t-70.5 -29.5h-700v-450h600q41 0 70.5 -29.5t29.5 -70.5t-29.5 -70.5t-70.5 -29.5h-600v-550z" />
    <glyph glyph-name="g" unicode="g" 
d="M1000 100q0 -41 -29.5 -70.5t-70.5 -29.5t-70 30q-30 29 -30 69q-129 -99 -300 -99q-207 0 -353.5 146.5t-146.5 353.5v500q0 207 146.5 353.5t353.5 146.5t353.5 -146.5t146.5 -353.5q0 -41 -29.5 -70.5t-70.5 -29.5t-70.5 29.5t-29.5 70.5q0 124 -88 212t-212 88
t-212 -88t-88 -212v-500q0 -124 88 -212t212 -88t212 88t88 212v50h-350q-41 0 -70.5 29.5t-29.5 70.5t29.5 70.5t70.5 29.5h450q41 0 70.5 -29.5t29.5 -70.5v-550z" />
    <glyph glyph-name="h" unicode="h" 
d="M800 650h-600v-550q0 -41 -29.5 -70.5t-70.5 -29.5t-70.5 29.5t-29.5 70.5v1300q0 41 29.5 70.5t70.5 29.5t70.5 -29.5t29.5 -70.5v-550h600v550q0 41 29.5 70.5t70.5 29.5t70.5 -29.5t29.5 -70.5v-1300q0 -41 -29.5 -70.5t-70.5 -29.5t-70.5 29.5t-29.5 70.5v550z" />
    <glyph glyph-name="i" unicode="i" 
d="M400 200v1100h-300q-41 0 -70.5 29.5t-29.5 70.5t29.5 70.5t70.5 29.5h800q41 0 70.5 -29.5t29.5 -70.5t-29.5 -70.5t-70.5 -29.5h-300v-1100h300q41 0 70.5 -29.5t29.5 -70.5t-29.5 -70.5t-70.5 -29.5h-800q-41 0 -70.5 29.5t-29.5 70.5t29.5 70.5t70.5 29.5h300z" />
    <glyph glyph-name="j" unicode="j" 
d="M29.5 570.5q29.5 29.5 70.5 29.5t70.5 -29.5t29.5 -70.5q0 -124 88 -212t212 -88t212 88t88 212v900q0 41 29.5 70.5t70.5 29.5t70.5 -29.5t29.5 -70.5v-900q0 -207 -146.5 -353.5t-353.5 -146.5t-353.5 146.5t-146.5 353.5q0 41 29.5 70.5z" />
    <glyph glyph-name="k" unicode="k" 
d="M390 718l-190 -203v-415q0 -41 -29.5 -70.5t-70.5 -29.5t-70.5 29.5t-29.5 70.5v1300q0 41 29.5 70.5t70.5 29.5t70.5 -29.5t29.5 -70.5v-606l600 641q13 19 30 36q29 29 70 29t70.5 -29.5t29.5 -70.5t-29 -70q-21 -21 -36 -30l-398 -426q7 -11 13 -24l410 -650
q40 -59 40 -100t-29.5 -70.5t-70.5 -29.5t-70.5 29.5t-49.5 70.5z" />
    <glyph glyph-name="l" unicode="l" 
d="M200 1400v-1200h700q41 0 70.5 -29.5t29.5 -70.5t-29.5 -70.5t-70.5 -29.5h-800q-41 0 -70.5 29.5t-29.5 70.5v1300q0 41 29.5 70.5t70.5 29.5t70.5 -29.5t29.5 -70.5z" />
    <glyph glyph-name="m" unicode="m" 
d="M1000 1400v-1300q0 -41 -29.5 -70.5t-70.5 -29.5t-70.5 29.5t-29.5 70.5v633l-200 -653h-2q-5 -28 -27 -50q-30 -30 -71 -30t-70 30q-23 22 -28 50h-2l-200 653v-633q0 -41 -29.5 -70.5t-70.5 -29.5t-70.5 29.5t-29.5 70.5v1300q0 41 30 71q29 29 70 29t71 -29
q26 -27 39 -91l290 -952l290 952q26 68 45 91q24 29 65 29t70.5 -29.5t29.5 -70.5z" />
    <glyph glyph-name="n" unicode="n" 
d="M220 1400l580 -941v941q0 41 29.5 70.5t70.5 29.5t70.5 -29.5t29.5 -70.5v-1300q0 -41 -29.5 -70.5t-70.5 -29.5t-70.5 29.5t-49.5 70.5l-580 941v-941q0 -41 -29.5 -70.5t-70.5 -29.5t-70.5 29.5t-29.5 70.5v1300q0 41 29.5 70.5t70.5 29.5t70.5 -29.5t49.5 -70.5z" />
    <glyph glyph-name="o" unicode="o" 
d="M1000 500q0 -207 -146.5 -353.5t-353.5 -146.5t-353.5 146.5t-146.5 353.5v500q0 207 146.5 353.5t353.5 146.5t353.5 -146.5t146.5 -353.5v-500zM200 500q0 -124 88 -212t212 -88t212 88t88 212v500q0 124 -88 212t-212 88t-212 -88t-88 -212v-500z" />
    <glyph glyph-name="p" unicode="p" 
d="M575 650h-375v-550q0 -41 -29.5 -70.5t-70.5 -29.5t-70.5 29.5t-29.5 70.5v1300q0 41 29.5 70.5t70.5 29.5h475q176 0 300.5 -124.5t124.5 -300.5t-124.5 -300.5t-300.5 -124.5zM575 1300h-375v-450h375q93 0 159 66t66 159t-66 159t-159 66z" />
    <glyph glyph-name="q" unicode="q" 
d="M795 441q5 28 5 59v500q0 124 -88 212t-212 88t-212 -88t-88 -212v-500q0 -124 88 -212t212 -88q98 0 174 55l-134 195q-40 59 -40 100t29.5 70.5t70.5 29.5t70.5 -29.5t49.5 -70.5zM786 89q-125 -89 -286 -89q-207 0 -353.5 146.5t-146.5 353.5v500q0 207 146.5 353.5
t353.5 146.5t353.5 -146.5t146.5 -353.5v-500q0 -143 -70 -257l30 -43q40 -59 40 -100t-29.5 -70.5t-70.5 -29.5t-70 30q-26 25 -44 59z" />
    <glyph glyph-name="r" unicode="r" 
d="M575 1300h-375v-450h375q93 0 159 66t66 159t-66 159t-159 66zM440 650h-240v-550q0 -41 -29.5 -70.5t-70.5 -29.5t-70.5 29.5t-29.5 70.5v1300q0 41 29.5 70.5t70.5 29.5h475q176 0 300.5 -124.5t124.5 -300.5t-124 -300q-88 -88 -201 -114l285 -461q40 -59 40 -100
t-29.5 -70.5t-70.5 -29.5t-70.5 29.5t-49.5 70.5z" />
    <glyph glyph-name="s" unicode="s" 
d="M1000 1075q0 -41 -29.5 -70.5t-70.5 -29.5t-70.5 29.5t-29.5 70.5q0 93 -66 159t-159 66h-150q-93 0 -159 -66t-66 -159t66 -159t159 -66h150q176 0 300.5 -124.5t124.5 -300.5t-124.5 -300.5t-300.5 -124.5h-150q-176 0 -300.5 124.5t-124.5 300.5q0 41 29.5 70.5
t70.5 29.5t70.5 -29.5t29.5 -70.5q0 -93 66 -159t159 -66h150q93 0 159 66t66 159t-66 159t-159 66h-150q-176 0 -300.5 124.5t-124.5 300.5t124.5 300.5t300.5 124.5h150q176 0 300.5 -124.5t124.5 -300.5z" />
    <glyph glyph-name="t" unicode="t" 
d="M600 1300v-1200q0 -41 -29.5 -70.5t-70.5 -29.5t-70.5 29.5t-29.5 70.5v1200h-300q-41 0 -70.5 29.5t-29.5 70.5t29.5 70.5t70.5 29.5h800q41 0 70.5 -29.5t29.5 -70.5t-29.5 -70.5t-70.5 -29.5h-300z" />
    <glyph glyph-name="u" unicode="u" 
d="M0 1400q0 41 29.5 70.5t70.5 29.5t70.5 -29.5t29.5 -70.5v-900q0 -124 88 -212t212 -88t212 88t88 212v900q0 41 29.5 70.5t70.5 29.5t70.5 -29.5t29.5 -70.5v-900q0 -207 -146.5 -353.5t-353.5 -146.5t-353.5 146.5t-146.5 353.5v900z" />
    <glyph glyph-name="v" unicode="v" 
d="M500 0q-41 0 -70 30q-23 22 -28 50h-2l-380 1240q-20 46 -20 80q0 41 29.5 70.5t70.5 29.5t65.5 -29.5t44.5 -90.5l290 -952l290 952q20 61 44.5 90.5t65.5 29.5t70.5 -29.5t29.5 -70.5q0 -34 -20 -80l-380 -1240h-2q-5 -28 -27 -50q-30 -30 -71 -30z" />
    <glyph glyph-name="w" unicode="w" 
d="M500 751l-100 -651q0 -41 -29.5 -70.5t-70.5 -29.5t-70.5 29.5t-29.5 70.5l-195 1269q-5 14 -5 31q0 41 29.5 70.5t70.5 29.5t70.5 -29.5t29.5 -70.5l100 -650l100 650q0 41 29.5 70.5t70.5 29.5t70.5 -29.5t29.5 -70.5l100 -650l100 650q0 41 29.5 70.5t70.5 29.5
t70.5 -29.5t29.5 -70.5q0 -17 -5 -31l-195 -1269q0 -41 -29.5 -70.5t-70.5 -29.5t-70.5 29.5t-29.5 70.5z" />
    <glyph glyph-name="x" unicode="x" 
d="M500 554l-280 -454q-20 -41 -49.5 -70.5t-70.5 -29.5t-70.5 29.5t-29.5 70.5t40 100l339 550l-339 550q-40 59 -40 100t29.5 70.5t70.5 29.5t70.5 -29.5t49.5 -70.5l280 -454l280 454q20 41 49.5 70.5t70.5 29.5t70.5 -29.5t29.5 -70.5t-40 -100l-339 -550l339 -550
q40 -59 40 -100t-29.5 -70.5t-70.5 -29.5t-70.5 29.5t-49.5 70.5z" />
    <glyph glyph-name="y" unicode="y" 
d="M400 716l-21 34l-339 550q-40 59 -40 100t29.5 70.5t70.5 29.5t70.5 -29.5t49.5 -70.5l280 -454l280 454q20 41 49.5 70.5t70.5 29.5t70.5 -29.5t29.5 -70.5t-40 -100l-339 -550l-21 -34v-616q0 -41 -29.5 -70.5t-70.5 -29.5t-70.5 29.5t-29.5 70.5v616z" />
    <glyph glyph-name="z" unicode="z" 
d="M559 650l-277 -450h618q41 0 70.5 -29.5t29.5 -70.5t-29.5 -70.5t-70.5 -29.5h-800q-41 0 -70.5 29.5t-29.5 70.5t40 100l277 450h-117q-41 0 -70.5 29.5t-29.5 70.5t29.5 70.5t70.5 29.5h241l277 450h-618q-41 0 -70.5 29.5t-29.5 70.5t29.5 70.5t70.5 29.5h800
q41 0 70.5 -29.5t29.5 -70.5t-40 -100l-277 -450h117q41 0 70.5 -29.5t29.5 -70.5t-29.5 -70.5t-70.5 -29.5h-241z" />
    <glyph glyph-name="braceleft" unicode="{" 
d="M350 1075v125q0 207 146.5 353.5t353.5 146.5h50q41 0 70.5 -29.5t29.5 -70.5t-29.5 -70.5t-70.5 -29.5h-50q-124 0 -212 -88t-88 -212v-125q0 -176 -124 -300q-13 -13 -27 -25q14 -12 27 -24q124 -125 124 -301v-125q0 -124 88 -212t212 -88h50q41 0 70.5 -29.5
t29.5 -70.5t-29.5 -70.5t-70.5 -29.5h-50q-207 0 -353.5 146.5t-146.5 353.5v125q0 93 -66 159t-159 66h-25q-41 0 -70.5 29.5t-29.5 70.5t29.5 70.5t70.5 29.5h25q93 0 159 66t66 159z" />
    <glyph glyph-name="bar" unicode="|" 
d="M100 1600q0 41 29.5 70.5t70.5 29.5t70.5 -29.5t29.5 -70.5v-1700q0 -41 -29.5 -70.5t-70.5 -29.5t-70.5 29.5t-29.5 70.5v1700z" />
    <glyph glyph-name="braceright" unicode="}" 
d="M716 916q66 -66 159 -66h25q41 0 70.5 -29.5t29.5 -70.5t-29.5 -70.5t-70.5 -29.5h-25q-93 0 -159 -66t-66 -159v-125q0 -207 -146.5 -353.5t-353.5 -146.5h-50q-41 0 -70.5 29.5t-29.5 70.5t29.5 70.5t70.5 29.5h50q124 0 212 88t88 212v125q0 176 124 301q13 12 27 24
q-14 12 -27 25q-124 124 -124 300v125q0 124 -88 212t-212 88h-50q-41 0 -70.5 29.5t-29.5 70.5t29.5 70.5t70.5 29.5h50q207 0 353.5 -146.5t146.5 -353.5v-125q0 -93 66 -159z" />
    <glyph glyph-name="asciitilde" unicode="~" 
d="M625 1925q34 -25 75 -25t70.5 29.5t29.5 70.5t29.5 70.5t70.5 29.5t70.5 -29.5t29.5 -70.5q0 -124 -88 -212t-212 -88t-200 75l-125 100q-34 25 -75 25t-70.5 -29.5t-29.5 -70.5t-29.5 -70.5t-70.5 -29.5t-70.5 29.5t-29.5 70.5q0 124 88 212t212 88t200 -75z" />
    <glyph glyph-name="exclamdown" unicode="&#xa1;" 
d="M100 1100q0 41 29.5 70.5t70.5 29.5t70.5 -29.5t29.5 -70.5v-1000q0 -41 -29.5 -70.5t-70.5 -29.5t-70.5 29.5t-29.5 70.5v1000zM129.5 1329.5q-29.5 29.5 -29.5 70.5t29.5 70.5t70.5 29.5t70.5 -29.5t29.5 -70.5t-29.5 -70.5t-70.5 -29.5t-70.5 29.5z" />
    <glyph glyph-name="cent" unicode="&#xa2;" 
d="M200 475q0 -52 36.5 -88.5t88.5 -36.5h75v800h-75q-52 0 -88.5 -36.5t-36.5 -88.5v-550zM1000 500v-50h-1q-8 -119 -94 -205q-95 -95 -230 -95h-75v-50q0 -41 -29.5 -70.5t-70.5 -29.5t-70.5 29.5t-29.5 70.5v50h-75q-135 0 -230 95q-86 86 -94 205h-1v575q0 135 95 230
t230 95h75v50q0 41 29.5 70.5t70.5 29.5t70.5 -29.5t29.5 -70.5v-50h75q135 0 230 -95t95 -230q0 -41 -29.5 -70.5t-70.5 -29.5t-70.5 29.5t-29.5 70.5q0 52 -36.5 88.5t-88.5 36.5h-75v-800h75q52 0 89 37q27 27 34 63h2v50q0 41 29.5 70.5t70.5 29.5t70.5 -29.5
t29.5 -70.5z" />
    <glyph glyph-name="sterling" unicode="&#xa3;" 
d="M800 1150q0 62 -44 106t-106 44t-106 -44t-44 -106v-300h300q41 0 70.5 -29.5t29.5 -70.5t-29.5 -70.5t-70.5 -29.5h-300v-450h400q41 0 70.5 -29.5t29.5 -70.5t-29.5 -70.5t-70.5 -29.5h-800q-41 0 -70.5 29.5t-29.5 70.5t29.5 70.5t70.5 29.5h200v450h-100
q-41 0 -70.5 29.5t-29.5 70.5t29.5 70.5t70.5 29.5h100v300q0 145 102.5 247.5t247.5 102.5t247.5 -102.5t102.5 -247.5q0 -41 -29.5 -70.5t-70.5 -29.5t-70.5 29.5t-29.5 70.5z" />
    <glyph glyph-name="currency" unicode="&#xa4;" 
d="M588.5 661.5q36.5 36.5 36.5 88.5t-36.5 88.5t-88.5 36.5t-88.5 -36.5t-36.5 -88.5t36.5 -88.5t88.5 -36.5t88.5 36.5zM750 541l210 -341q40 -59 40 -100t-29.5 -70.5t-70.5 -29.5t-70.5 29.5t-49.5 70.5l-205 333q-36 -8 -75 -8t-75 8l-205 -333q-20 -41 -49.5 -70.5
t-70.5 -29.5t-70.5 29.5t-29.5 70.5t40 100l210 341q-75 89 -75 209t75 209l-210 341q-40 59 -40 100t29.5 70.5t70.5 29.5t70.5 -29.5t49.5 -70.5l205 -333q36 8 75 8t75 -8l205 333q20 41 49.5 70.5t70.5 29.5t70.5 -29.5t29.5 -70.5t-40 -100l-210 -341q75 -89 75 -209
t-75 -209z" />
    <glyph glyph-name="yen" unicode="&#xa5;" 
d="M600 200v-100q0 -41 -29.5 -70.5t-70.5 -29.5t-70.5 29.5t-29.5 70.5v100h-200q-41 0 -70.5 29.5t-29.5 70.5t29.5 70.5t70.5 29.5h200v200h-200q-41 0 -70.5 29.5t-29.5 70.5t29.5 70.5t70.5 29.5h148l-308 500q-40 59 -40 100t29.5 70.5t70.5 29.5t70.5 -29.5
t49.5 -70.5l280 -454l280 454q20 41 49.5 70.5t70.5 29.5t70.5 -29.5t29.5 -70.5t-40 -100l-308 -500h148q41 0 70.5 -29.5t29.5 -70.5t-29.5 -70.5t-70.5 -29.5h-200v-200h200q41 0 70.5 -29.5t29.5 -70.5t-29.5 -70.5t-70.5 -29.5h-200z" />
    <glyph glyph-name="brokenbar" unicode="&#xa6;" 
d="M300 950q0 -41 -29.5 -70.5t-70.5 -29.5t-70.5 29.5t-29.5 70.5v650q0 41 29.5 70.5t70.5 29.5t70.5 -29.5t29.5 -70.5v-650zM300 -100q0 -41 -29.5 -70.5t-70.5 -29.5t-70.5 29.5t-29.5 70.5v650q0 41 29.5 70.5t70.5 29.5t70.5 -29.5t29.5 -70.5v-650z" />
    <glyph glyph-name="section" unicode="&#xa7;" 
d="M588.5 661.5q36.5 36.5 36.5 88.5t-36.5 88.5t-88.5 36.5t-88.5 -36.5t-36.5 -88.5t36.5 -88.5t88.5 -36.5t88.5 36.5zM176 730q-27 20 -51 45q-125 124 -125 300v200q0 176 124.5 300.5t300.5 124.5h150q176 0 300.5 -124.5t124.5 -300.5q0 -41 -29.5 -70.5t-70.5 -29.5
t-70.5 29.5t-29.5 70.5q0 93 -66 159t-159 66h-150q-93 0 -159 -66t-66 -158v-201q0 -73 40 -129q14 18 30 34q95 95 230 95t230 -95q88 -88 94 -210q27 -20 52 -44q124 -125 124 -301v-200q0 -176 -124.5 -300.5t-300.5 -124.5h-150q-176 0 -300.5 124.5t-124.5 300.5
q0 41 29.5 70.5t70.5 29.5t70.5 -29.5t29.5 -70.5q0 -93 66 -159t159 -66h150q93 0 159 66t66 160v199q0 73 -40 129q-14 -18 -30 -34q-95 -95 -230 -95t-230 95q-88 88 -94 210z" />
    <glyph glyph-name="dieresis" unicode="&#xa8;" 
d="M370.5 1870.5q29.5 -29.5 29.5 -70.5t-29.5 -70.5t-70.5 -29.5t-70.5 29.5t-29.5 70.5t29.5 70.5t70.5 29.5t70.5 -29.5zM770.5 1870.5q29.5 -29.5 29.5 -70.5t-29.5 -70.5t-70.5 -29.5t-70.5 29.5t-29.5 70.5t29.5 70.5t70.5 29.5t70.5 -29.5z" />
    <glyph glyph-name="copyright" unicode="&#xa9;" horiz-adv-x="1300" 
d="M700 1000q0 21 15 35.5t35 14.5q21 0 35.5 -14.5t14.5 -35.5q0 -103 -73 -176.5t-177 -73.5q-103 0 -176.5 73.5t-73.5 176.5v250q0 104 73.5 177t176.5 73q104 0 177 -73t73 -177q0 -20 -14.5 -35t-35.5 -15q-20 0 -35 15t-15 35q0 62 -44 106t-106 44t-106 -44
t-44 -106v-250q0 -62 44 -106t106 -44t106 44t44 106zM550 1600q-145 0 -247.5 -139t-102.5 -336t102.5 -336t247.5 -139t247.5 139t102.5 336t-102.5 336t-247.5 139zM939 1602.5q161 -197.5 161 -477.5t-161 -477.5t-389 -197.5t-389 197.5t-161 477.5t161 477.5
t389 197.5t389 -197.5z" />
    <glyph glyph-name="ordfeminine" unicode="&#xaa;" horiz-adv-x="1650" 
d="M0 200v1100q0 200 200 200h1100q200 0 200 -200v-1100q0 -200 -200 -200h-1100q-200 0 -200 200zM1475 201v1099q0 175 -175 175h-1100q-174 0 -175 -175v-1100q1 -175 175 -175h1101q174 0 174 176z" />
    <glyph glyph-name="guillemotleft" unicode="&#xab;" 
d="M670 320q30 -29 30 -70t-29.5 -70.5t-70.5 -29.5t-71 29l-500 500q-29 30 -29 71t29 71l500 499q30 30 71 30t70.5 -29.5t29.5 -70.5t-30 -71l-430 -429zM1070 320q30 -29 30 -70t-29.5 -70.5t-70.5 -29.5t-71 29l-500 500q-29 30 -29 71t29 71l500 499q30 30 71 30
t70.5 -29.5t29.5 -70.5t-30 -71l-430 -429z" />
    <glyph glyph-name="logicalnot" unicode="&#xac;" horiz-adv-x="1650" 
d="M0 200v1100q0 200 200 200h1100q200 0 200 -200v-1100q0 -200 -200 -200h-1100q-200 0 -200 200zM1475 201v1099q0 175 -175 175h-1100q-174 0 -175 -175v-1100q1 -175 175 -175h1101q174 0 174 176z" />
    <glyph glyph-name="registered" unicode="&#xae;" horiz-adv-x="1300" 
d="M588 1400h-188v-225h188q46 0 79 33t33 80q0 46 -33 79t-79 33zM799 791q101 139 101 334q0 197 -102.5 336t-247.5 139q-125 0 -219 -104q9 4 19 4h238q88 0 150 -62t62 -150t-62 -150q-44 -44 -100 -57l142 -231q20 -29 20 -50q0 -4 -1 -9zM301 1458
q-101 -138 -101 -333t101 -334q-1 5 -1 9v650q0 4 1 8zM331 754q94 -104 219 -104t218 103q-8 -3 -18 -3q-20 0 -35 15t-25 35l-170 275h-120v-275q0 -20 -14.5 -35t-35.5 -15q-10 0 -19 4zM1100 1125q0 -280 -161 -477.5t-389 -197.5t-389 197.5t-161 477.5t161 477.5
t389 197.5t389 -197.5t161 -477.5z" />
    <glyph glyph-name="macron" unicode="&#xaf;" horiz-adv-x="1650" 
d="M0 200v1100q0 200 200 200h1100q200 0 200 -200v-1100q0 -200 -200 -200h-1100q-200 0 -200 200zM1475 201v1099q0 175 -175 175h-1100q-174 0 -175 -175v-1100q1 -175 175 -175h1101q174 0 174 176z" />
    <glyph glyph-name="degree" unicode="&#xb0;" horiz-adv-x="1650" 
d="M0 200v1100q0 200 200 200h1100q200 0 200 -200v-1100q0 -200 -200 -200h-1100q-200 0 -200 200zM1475 201v1099q0 175 -175 175h-1100q-174 0 -175 -175v-1100q1 -175 175 -175h1101q174 0 174 176z" />
    <glyph glyph-name="plusminus" unicode="&#xb1;" horiz-adv-x="1650" 
d="M0 200v1100q0 200 200 200h1100q200 0 200 -200v-1100q0 -200 -200 -200h-1100q-200 0 -200 200zM1475 201v1099q0 175 -175 175h-1100q-174 0 -175 -175v-1100q1 -175 175 -175h1101q174 0 174 176z" />
    <glyph glyph-name="uni00B2" unicode="&#xb2;" horiz-adv-x="1650" 
d="M0 200v1100q0 200 200 200h1100q200 0 200 -200v-1100q0 -200 -200 -200h-1100q-200 0 -200 200zM1475 201v1099q0 175 -175 175h-1100q-174 0 -175 -175v-1100q1 -175 175 -175h1101q174 0 174 176z" />
    <glyph glyph-name="uni00B3" unicode="&#xb3;" horiz-adv-x="1650" 
d="M0 200v1100q0 200 200 200h1100q200 0 200 -200v-1100q0 -200 -200 -200h-1100q-200 0 -200 200zM1475 201v1099q0 175 -175 175h-1100q-174 0 -175 -175v-1100q1 -175 175 -175h1101q174 0 174 176z" />
    <glyph glyph-name="acute" unicode="&#xb4;" 
d="M371 1730q-30 -30 -71 -30t-70.5 29.5t-29.5 70.5t30 71l400 400q29 29 70 29t70.5 -29.5t29.5 -70.5t-29 -70z" />
    <glyph glyph-name="mu" unicode="&#xb5;" 
d="M0 1400q0 41 29.5 70.5t70.5 29.5t70.5 -29.5t29.5 -70.5v-900q0 -124 88 -212t212 -88t212 88t88 212v900q0 41 29.5 70.5t70.5 29.5t70.5 -29.5t29.5 -70.5v-900q0 -207 -146.5 -353.5t-353.5 -146.5q-171 0 -300 99q0 -40 -29 -69q-30 -30 -71 -30t-70.5 29.5
t-29.5 70.5v1300z" />
    <glyph glyph-name="paragraph" unicode="&#xb6;" horiz-adv-x="1024" 
d="M929 1435v-70h-127v-1365h-82v1365h-166v-1365h-84v738q-174 8 -275.5 102.5t-101.5 245.5q0 157 107.5 253t285.5 96h443z" />
    <glyph glyph-name="periodcentered" unicode="&#xb7;" 
d="M270.5 770.5q29.5 -29.5 29.5 -70.5t-29.5 -70.5t-70.5 -29.5t-70.5 29.5t-29.5 70.5t29.5 70.5t70.5 29.5t70.5 -29.5z" />
    <glyph glyph-name="periodcentered" unicode="&#x2219;" 
d="M270.5 770.5q29.5 -29.5 29.5 -70.5t-29.5 -70.5t-70.5 -29.5t-70.5 29.5t-29.5 70.5t29.5 70.5t70.5 29.5t70.5 -29.5z" />
    <glyph glyph-name="cedilla" unicode="&#xb8;" 
d="M200 -200h75q93 0 159 66t66 159q0 41 29.5 70.5t70.5 29.5t70.5 -29.5t29.5 -70.5q0 -176 -124.5 -300.5t-300.5 -124.5h-75q-41 0 -70.5 29.5t-29.5 70.5t29.5 70.5t70.5 29.5z" />
    <glyph glyph-name="uni00B9" unicode="&#xb9;" horiz-adv-x="1650" 
d="M0 200v1100q0 200 200 200h1100q200 0 200 -200v-1100q0 -200 -200 -200h-1100q-200 0 -200 200zM1475 201v1099q0 175 -175 175h-1100q-174 0 -175 -175v-1100q1 -175 175 -175h1101q174 0 174 176z" />
    <glyph glyph-name="ordmasculine" unicode="&#xba;" horiz-adv-x="1650" 
d="M0 200v1100q0 200 200 200h1100q200 0 200 -200v-1100q0 -200 -200 -200h-1100q-200 0 -200 200zM1475 201v1099q0 175 -175 175h-1100q-174 0 -175 -175v-1100q1 -175 175 -175h1101q174 0 174 176z" />
    <glyph glyph-name="guillemotright" unicode="&#xbb;" 
d="M860 750l-430 429q-30 30 -30 71t29.5 70.5t70.5 29.5t71 -30l500 -499q29 -30 29 -71t-29 -71l-500 -500q-30 -29 -71 -29t-70.5 29.5t-29.5 70.5t30 70zM460 750l-430 429q-30 30 -30 71t29.5 70.5t70.5 29.5t71 -30l500 -499q29 -30 29 -71t-29 -71l-500 -500
q-30 -29 -71 -29t-70.5 29.5t-29.5 70.5t30 70z" />
    <glyph glyph-name="onequarter" unicode="&#xbc;" horiz-adv-x="1650" 
d="M0 200v1100q0 200 200 200h1100q200 0 200 -200v-1100q0 -200 -200 -200h-1100q-200 0 -200 200zM1475 201v1099q0 175 -175 175h-1100q-174 0 -175 -175v-1100q1 -175 175 -175h1101q174 0 174 176z" />
    <glyph glyph-name="onehalf" unicode="&#xbd;" horiz-adv-x="1650" 
d="M0 200v1100q0 200 200 200h1100q200 0 200 -200v-1100q0 -200 -200 -200h-1100q-200 0 -200 200zM1475 201v1099q0 175 -175 175h-1100q-174 0 -175 -175v-1100q1 -175 175 -175h1101q174 0 174 176z" />
    <glyph glyph-name="threequarters" unicode="&#xbe;" horiz-adv-x="1650" 
d="M0 200v1100q0 200 200 200h1100q200 0 200 -200v-1100q0 -200 -200 -200h-1100q-200 0 -200 200zM1475 201v1099q0 175 -175 175h-1100q-174 0 -175 -175v-1100q1 -175 175 -175h1101q174 0 174 176z" />
    <glyph glyph-name="questiondown" unicode="&#xbf;" 
d="M900 1075q0 -176 -124.5 -300.5t-300.5 -124.5h-50q-93 0 -159 -66t-66 -159t66 -159t159 -66h150q93 0 159 66t66 159q0 41 29.5 70.5t70.5 29.5t70.5 -29.5t29.5 -70.5q0 -176 -124.5 -300.5t-300.5 -124.5h-150q-176 0 -300.5 124.5t-124.5 300.5t124.5 300.5
t300.5 124.5h50q93 0 159 66t66 159v25q0 41 29.5 70.5t70.5 29.5t70.5 -29.5t29.5 -70.5v-25zM729.5 1329.5q-29.5 29.5 -29.5 70.5t29.5 70.5t70.5 29.5t70.5 -29.5t29.5 -70.5t-29.5 -70.5t-70.5 -29.5t-70.5 29.5z" />
    <glyph glyph-name="Agrave" unicode="&#xc0;" 
d="M265 300l-55 -180q-20 -61 -44.5 -90.5t-65.5 -29.5t-70.5 29.5t-29.5 70.5q0 34 20 80l380 1240h2q5 28 28 50q29 30 70 30t71 -30q22 -22 27 -50h2l380 -1240q20 -46 20 -80q0 -41 -29.5 -70.5t-70.5 -29.5t-65.5 29.5t-44.5 90.5l-55 180h-470zM674 500l-174 572
l-174 -572h348zM230 2130q-30 29 -30 70t29.5 70.5t70.5 29.5t71 -29l400 -400q29 -30 29 -71t-29.5 -70.5t-70.5 -29.5t-70 30z" />
    <glyph glyph-name="Aacute" unicode="&#xc1;" 
d="M265 300l-55 -180q-20 -61 -44.5 -90.5t-65.5 -29.5t-70.5 29.5t-29.5 70.5q0 34 20 80l380 1240h2q5 28 28 50q29 30 70 30t71 -30q22 -22 27 -50h2l380 -1240q20 -46 20 -80q0 -41 -29.5 -70.5t-70.5 -29.5t-65.5 29.5t-44.5 90.5l-55 180h-470zM674 500l-174 572
l-174 -572h348zM371 1730q-30 -30 -71 -30t-70.5 29.5t-29.5 70.5t30 71l400 400q29 29 70 29t70.5 -29.5t29.5 -70.5t-29 -70z" />
    <glyph glyph-name="Acircumflex" unicode="&#xc2;" 
d="M265 300l-55 -180q-20 -61 -44.5 -90.5t-65.5 -29.5t-70.5 29.5t-29.5 70.5q0 34 20 80l380 1240h2q5 28 28 50q29 30 70 30t71 -30q22 -22 27 -50h2l380 -1240q20 -46 20 -80q0 -41 -29.5 -70.5t-70.5 -29.5t-65.5 29.5t-44.5 90.5l-55 180h-470zM674 500l-174 572
l-174 -572h348zM501 2060l-330 -330q-30 -30 -71 -30t-70.5 29.5t-29.5 70.5t30 71l400 400q29 29 70 29t71 -29l400 -400q29 -30 29 -71t-29.5 -70.5t-70.5 -29.5t-70 30z" />
    <glyph glyph-name="Atilde" unicode="&#xc3;" 
d="M265 300l-55 -180q-20 -61 -44.5 -90.5t-65.5 -29.5t-70.5 29.5t-29.5 70.5q0 34 20 80l380 1240h2q5 28 28 50q29 30 70 30t71 -30q22 -22 27 -50h2l380 -1240q20 -46 20 -80q0 -41 -29.5 -70.5t-70.5 -29.5t-65.5 29.5t-44.5 90.5l-55 180h-470zM674 500l-174 572
l-174 -572h348zM625 1925q34 -25 75 -25t70.5 29.5t29.5 70.5t29.5 70.5t70.5 29.5t70.5 -29.5t29.5 -70.5q0 -124 -88 -212t-212 -88t-200 75l-125 100q-34 25 -75 25t-70.5 -29.5t-29.5 -70.5t-29.5 -70.5t-70.5 -29.5t-70.5 29.5t-29.5 70.5q0 124 88 212t212 88t200 -75
z" />
    <glyph glyph-name="Adieresis" unicode="&#xc4;" 
d="M265 300l-55 -180q-20 -61 -44.5 -90.5t-65.5 -29.5t-70.5 29.5t-29.5 70.5q0 34 20 80l380 1240h2q5 28 28 50q29 30 70 30t71 -30q22 -22 27 -50h2l380 -1240q20 -46 20 -80q0 -41 -29.5 -70.5t-70.5 -29.5t-65.5 29.5t-44.5 90.5l-55 180h-470zM674 500l-174 572
l-174 -572h348zM370.5 1870.5q29.5 -29.5 29.5 -70.5t-29.5 -70.5t-70.5 -29.5t-70.5 29.5t-29.5 70.5t29.5 70.5t70.5 29.5t70.5 -29.5zM770.5 1870.5q29.5 -29.5 29.5 -70.5t-29.5 -70.5t-70.5 -29.5t-70.5 29.5t-29.5 70.5t29.5 70.5t70.5 29.5t70.5 -29.5z" />
    <glyph glyph-name="Aring" unicode="&#xc5;" 
d="M265 300l-55 -180q-20 -61 -44.5 -90.5t-65.5 -29.5t-70.5 29.5t-29.5 70.5q0 34 20 80l380 1240h2q5 28 28 50q29 30 70 30t71 -30q22 -22 27 -50h2l380 -1240q20 -46 20 -80q0 -41 -29.5 -70.5t-70.5 -29.5t-65.5 29.5t-44.5 90.5l-55 180h-470zM674 500l-174 572
l-174 -572h348zM500 1700q-124 0 -212 88t-88 212t88 212t212 88t212 -88t88 -212t-88 -212t-212 -88zM570.5 1929.5q29.5 29.5 29.5 70.5t-29.5 70.5t-70.5 29.5t-70.5 -29.5t-29.5 -70.5t29.5 -70.5t70.5 -29.5t70.5 29.5z" />
    <glyph glyph-name="AE" unicode="&#xc6;" 
d="M1000 1500q41 0 70.5 -29.5t29.5 -70.5t-29.5 -70.5t-70.5 -29.5h-300v-450h200q41 0 70.5 -29.5t29.5 -70.5t-29.5 -70.5t-70.5 -29.5h-200v-450h300q41 0 70.5 -29.5t29.5 -70.5t-29.5 -70.5t-70.5 -29.5h-400q-41 0 -70.5 29.5t-29.5 70.5v200h-235l-55 -180
q-20 -61 -44.5 -90.5t-65.5 -29.5t-70.5 29.5t-29.5 70.5q0 34 20 80l380 1240h2q5 28 28 50q29 30 70 30h500zM500 1072l-174 -572h174v572z" />
    <glyph glyph-name="Ccedilla" unicode="&#xc7;" 
d="M499 0q-206 0 -352 147q-147 146 -147 353v500q0 207 146.5 353.5t353.5 146.5t353.5 -146.5t146.5 -353.5q0 -41 -29.5 -70.5t-70.5 -29.5t-70.5 29.5t-29.5 70.5q0 124 -88 212t-212 88t-212 -88t-88 -212v-500q0 -124 88 -212t212 -88t212 88t88 212q0 41 29.5 70.5
t70.5 29.5t70.5 -29.5t29.5 -70.5q0 -207 -146 -353q-71 -71 -155 -107q1 -7 1 -15q0 -176 -124.5 -300.5t-300.5 -124.5h-75q-41 0 -70.5 29.5t-29.5 70.5t29.5 70.5t70.5 29.5h75q93 0 159 66q57 57 65 134z" />
    <glyph glyph-name="Egrave" unicode="&#xc8;" 
d="M900 200q41 0 70.5 -29.5t29.5 -70.5t-29.5 -70.5t-70.5 -29.5h-800q-41 0 -70.5 29.5t-29.5 70.5v1300q0 41 29.5 70.5t70.5 29.5h800q41 0 70.5 -29.5t29.5 -70.5t-29.5 -70.5t-70.5 -29.5h-700v-450h600q41 0 70.5 -29.5t29.5 -70.5t-29.5 -70.5t-70.5 -29.5h-600
v-450h700zM230 2130q-30 29 -30 70t29.5 70.5t70.5 29.5t71 -29l400 -400q29 -30 29 -71t-29.5 -70.5t-70.5 -29.5t-70 30z" />
    <glyph glyph-name="Eacute" unicode="&#xc9;" 
d="M900 200q41 0 70.5 -29.5t29.5 -70.5t-29.5 -70.5t-70.5 -29.5h-800q-41 0 -70.5 29.5t-29.5 70.5v1300q0 41 29.5 70.5t70.5 29.5h800q41 0 70.5 -29.5t29.5 -70.5t-29.5 -70.5t-70.5 -29.5h-700v-450h600q41 0 70.5 -29.5t29.5 -70.5t-29.5 -70.5t-70.5 -29.5h-600
v-450h700zM371 1730q-30 -30 -71 -30t-70.5 29.5t-29.5 70.5t30 71l400 400q29 29 70 29t70.5 -29.5t29.5 -70.5t-29 -70z" />
    <glyph glyph-name="Ecircumflex" unicode="&#xca;" 
d="M900 200q41 0 70.5 -29.5t29.5 -70.5t-29.5 -70.5t-70.5 -29.5h-800q-41 0 -70.5 29.5t-29.5 70.5v1300q0 41 29.5 70.5t70.5 29.5h800q41 0 70.5 -29.5t29.5 -70.5t-29.5 -70.5t-70.5 -29.5h-700v-450h600q41 0 70.5 -29.5t29.5 -70.5t-29.5 -70.5t-70.5 -29.5h-600
v-450h700zM501 2060l-330 -330q-30 -30 -71 -30t-70.5 29.5t-29.5 70.5t30 71l400 400q29 29 70 29t71 -29l400 -400q29 -30 29 -71t-29.5 -70.5t-70.5 -29.5t-70 30z" />
    <glyph glyph-name="Edieresis" unicode="&#xcb;" 
d="M900 200q41 0 70.5 -29.5t29.5 -70.5t-29.5 -70.5t-70.5 -29.5h-800q-41 0 -70.5 29.5t-29.5 70.5v1300q0 41 29.5 70.5t70.5 29.5h800q41 0 70.5 -29.5t29.5 -70.5t-29.5 -70.5t-70.5 -29.5h-700v-450h600q41 0 70.5 -29.5t29.5 -70.5t-29.5 -70.5t-70.5 -29.5h-600
v-450h700zM370.5 1870.5q29.5 -29.5 29.5 -70.5t-29.5 -70.5t-70.5 -29.5t-70.5 29.5t-29.5 70.5t29.5 70.5t70.5 29.5t70.5 -29.5zM770.5 1870.5q29.5 -29.5 29.5 -70.5t-29.5 -70.5t-70.5 -29.5t-70.5 29.5t-29.5 70.5t29.5 70.5t70.5 29.5t70.5 -29.5z" />
    <glyph glyph-name="Igrave" unicode="&#xcc;" 
d="M400 200v1100h-300q-41 0 -70.5 29.5t-29.5 70.5t29.5 70.5t70.5 29.5h800q41 0 70.5 -29.5t29.5 -70.5t-29.5 -70.5t-70.5 -29.5h-300v-1100h300q41 0 70.5 -29.5t29.5 -70.5t-29.5 -70.5t-70.5 -29.5h-800q-41 0 -70.5 29.5t-29.5 70.5t29.5 70.5t70.5 29.5h300z
M230 2130q-30 29 -30 70t29.5 70.5t70.5 29.5t71 -29l400 -400q29 -30 29 -71t-29.5 -70.5t-70.5 -29.5t-70 30z" />
    <glyph glyph-name="Iacute" unicode="&#xcd;" 
d="M400 200v1100h-300q-41 0 -70.5 29.5t-29.5 70.5t29.5 70.5t70.5 29.5h800q41 0 70.5 -29.5t29.5 -70.5t-29.5 -70.5t-70.5 -29.5h-300v-1100h300q41 0 70.5 -29.5t29.5 -70.5t-29.5 -70.5t-70.5 -29.5h-800q-41 0 -70.5 29.5t-29.5 70.5t29.5 70.5t70.5 29.5h300z
M371 1730q-30 -30 -71 -30t-70.5 29.5t-29.5 70.5t30 71l400 400q29 29 70 29t70.5 -29.5t29.5 -70.5t-29 -70z" />
    <glyph glyph-name="Icircumflex" unicode="&#xce;" 
d="M400 200v1100h-300q-41 0 -70.5 29.5t-29.5 70.5t29.5 70.5t70.5 29.5h800q41 0 70.5 -29.5t29.5 -70.5t-29.5 -70.5t-70.5 -29.5h-300v-1100h300q41 0 70.5 -29.5t29.5 -70.5t-29.5 -70.5t-70.5 -29.5h-800q-41 0 -70.5 29.5t-29.5 70.5t29.5 70.5t70.5 29.5h300z
M501 2060l-330 -330q-30 -30 -71 -30t-70.5 29.5t-29.5 70.5t30 71l400 400q29 29 70 29t71 -29l400 -400q29 -30 29 -71t-29.5 -70.5t-70.5 -29.5t-70 30z" />
    <glyph glyph-name="Idieresis" unicode="&#xcf;" 
d="M400 200v1100h-300q-41 0 -70.5 29.5t-29.5 70.5t29.5 70.5t70.5 29.5h800q41 0 70.5 -29.5t29.5 -70.5t-29.5 -70.5t-70.5 -29.5h-300v-1100h300q41 0 70.5 -29.5t29.5 -70.5t-29.5 -70.5t-70.5 -29.5h-800q-41 0 -70.5 29.5t-29.5 70.5t29.5 70.5t70.5 29.5h300z
M370.5 1870.5q29.5 -29.5 29.5 -70.5t-29.5 -70.5t-70.5 -29.5t-70.5 29.5t-29.5 70.5t29.5 70.5t70.5 29.5t70.5 -29.5zM770.5 1870.5q29.5 -29.5 29.5 -70.5t-29.5 -70.5t-70.5 -29.5t-70.5 29.5t-29.5 70.5t29.5 70.5t70.5 29.5t70.5 -29.5z" />
    <glyph glyph-name="Eth" unicode="&#xd0;" 
d="M200 650v-450h300q124 0 212 88t88 212v500q0 124 -88 212t-212 88h-300v-450h300q41 0 70.5 -29.5t29.5 -70.5t-29.5 -70.5t-70.5 -29.5h-300zM100 0q-41 0 -70.5 29.5t-29.5 70.5v1300q0 41 29.5 70.5t70.5 29.5h400q207 0 353.5 -146.5t146.5 -353.5v-500
q0 -207 -146.5 -353.5t-353.5 -146.5h-400z" />
    <glyph glyph-name="Ntilde" unicode="&#xd1;" 
d="M220 1400l580 -941v941q0 41 29.5 70.5t70.5 29.5t70.5 -29.5t29.5 -70.5v-1300q0 -41 -29.5 -70.5t-70.5 -29.5t-70.5 29.5t-49.5 70.5l-580 941v-941q0 -41 -29.5 -70.5t-70.5 -29.5t-70.5 29.5t-29.5 70.5v1300q0 41 29.5 70.5t70.5 29.5t70.5 -29.5t49.5 -70.5z
M625 1925q34 -25 75 -25t70.5 29.5t29.5 70.5t29.5 70.5t70.5 29.5t70.5 -29.5t29.5 -70.5q0 -124 -88 -212t-212 -88t-200 75l-125 100q-34 25 -75 25t-70.5 -29.5t-29.5 -70.5t-29.5 -70.5t-70.5 -29.5t-70.5 29.5t-29.5 70.5q0 124 88 212t212 88t200 -75z" />
    <glyph glyph-name="Ograve" unicode="&#xd2;" 
d="M1000 500q0 -207 -146.5 -353.5t-353.5 -146.5t-353.5 146.5t-146.5 353.5v500q0 207 146.5 353.5t353.5 146.5t353.5 -146.5t146.5 -353.5v-500zM200 500q0 -124 88 -212t212 -88t212 88t88 212v500q0 124 -88 212t-212 88t-212 -88t-88 -212v-500zM230 2130
q-30 29 -30 70t29.5 70.5t70.5 29.5t71 -29l400 -400q29 -30 29 -71t-29.5 -70.5t-70.5 -29.5t-70 30z" />
    <glyph glyph-name="Oacute" unicode="&#xd3;" 
d="M1000 500q0 -207 -146.5 -353.5t-353.5 -146.5t-353.5 146.5t-146.5 353.5v500q0 207 146.5 353.5t353.5 146.5t353.5 -146.5t146.5 -353.5v-500zM200 500q0 -124 88 -212t212 -88t212 88t88 212v500q0 124 -88 212t-212 88t-212 -88t-88 -212v-500zM371 1730
q-30 -30 -71 -30t-70.5 29.5t-29.5 70.5t30 71l400 400q29 29 70 29t70.5 -29.5t29.5 -70.5t-29 -70z" />
    <glyph glyph-name="Ocircumflex" unicode="&#xd4;" 
d="M1000 500q0 -207 -146.5 -353.5t-353.5 -146.5t-353.5 146.5t-146.5 353.5v500q0 207 146.5 353.5t353.5 146.5t353.5 -146.5t146.5 -353.5v-500zM200 500q0 -124 88 -212t212 -88t212 88t88 212v500q0 124 -88 212t-212 88t-212 -88t-88 -212v-500zM501 2060l-330 -330
q-30 -30 -71 -30t-70.5 29.5t-29.5 70.5t30 71l400 400q29 29 70 29t71 -29l400 -400q29 -30 29 -71t-29.5 -70.5t-70.5 -29.5t-70 30z" />
    <glyph glyph-name="Otilde" unicode="&#xd5;" 
d="M1000 500q0 -207 -146.5 -353.5t-353.5 -146.5t-353.5 146.5t-146.5 353.5v500q0 207 146.5 353.5t353.5 146.5t353.5 -146.5t146.5 -353.5v-500zM200 500q0 -124 88 -212t212 -88t212 88t88 212v500q0 124 -88 212t-212 88t-212 -88t-88 -212v-500zM625 1925
q34 -25 75 -25t70.5 29.5t29.5 70.5t29.5 70.5t70.5 29.5t70.5 -29.5t29.5 -70.5q0 -124 -88 -212t-212 -88t-200 75l-125 100q-34 25 -75 25t-70.5 -29.5t-29.5 -70.5t-29.5 -70.5t-70.5 -29.5t-70.5 29.5t-29.5 70.5q0 124 88 212t212 88t200 -75z" />
    <glyph glyph-name="Odieresis" unicode="&#xd6;" 
d="M1000 500q0 -207 -146.5 -353.5t-353.5 -146.5t-353.5 146.5t-146.5 353.5v500q0 207 146.5 353.5t353.5 146.5t353.5 -146.5t146.5 -353.5v-500zM200 500q0 -124 88 -212t212 -88t212 88t88 212v500q0 124 -88 212t-212 88t-212 -88t-88 -212v-500zM370.5 1870.5
q29.5 -29.5 29.5 -70.5t-29.5 -70.5t-70.5 -29.5t-70.5 29.5t-29.5 70.5t29.5 70.5t70.5 29.5t70.5 -29.5zM770.5 1870.5q29.5 -29.5 29.5 -70.5t-29.5 -70.5t-70.5 -29.5t-70.5 29.5t-29.5 70.5t29.5 70.5t70.5 29.5t70.5 -29.5z" />
    <glyph glyph-name="multiply" unicode="&#xd7;" 
d="M500 554l-220 -354q-20 -41 -49.5 -70.5t-70.5 -29.5t-70.5 29.5t-29.5 70.5t40 100l279 450l-279 450q-40 59 -40 100t29.5 70.5t70.5 29.5t70.5 -29.5t49.5 -70.5l220 -354l220 354q20 41 49.5 70.5t70.5 29.5t70.5 -29.5t29.5 -70.5t-40 -100l-279 -450l279 -450
q40 -59 40 -100t-29.5 -70.5t-70.5 -29.5t-70.5 29.5t-49.5 70.5z" />
    <glyph glyph-name="Oslash" unicode="&#xd8;" 
d="M319 261q78 -61 181 -61q124 0 212 88t88 212v500q0 19 -2 37zM202 463l479 776q-78 61 -181 61q-124 0 -212 -88t-88 -212v-500q0 -19 2 -37zM932 1254q68 -113 68 -254v-500q0 -207 -146.5 -353.5t-353.5 -146.5q-161 0 -286 89q-18 -34 -43 -59q-30 -30 -71 -30
t-70.5 29.5t-29.5 70.5t40 100l28 46q-68 113 -68 254v500q0 207 146.5 353.5t353.5 146.5q161 0 286 -89q18 34 44 60q29 29 70 29t70.5 -29.5t29.5 -70.5t-40 -100z" />
    <glyph glyph-name="Ugrave" unicode="&#xd9;" 
d="M0 1400q0 41 29.5 70.5t70.5 29.5t70.5 -29.5t29.5 -70.5v-900q0 -124 88 -212t212 -88t212 88t88 212v900q0 41 29.5 70.5t70.5 29.5t70.5 -29.5t29.5 -70.5v-900q0 -207 -146.5 -353.5t-353.5 -146.5t-353.5 146.5t-146.5 353.5v900zM230 2130q-30 29 -30 70t29.5 70.5
t70.5 29.5t71 -29l400 -400q29 -30 29 -71t-29.5 -70.5t-70.5 -29.5t-70 30z" />
    <glyph glyph-name="Uacute" unicode="&#xda;" 
d="M0 1400q0 41 29.5 70.5t70.5 29.5t70.5 -29.5t29.5 -70.5v-900q0 -124 88 -212t212 -88t212 88t88 212v900q0 41 29.5 70.5t70.5 29.5t70.5 -29.5t29.5 -70.5v-900q0 -207 -146.5 -353.5t-353.5 -146.5t-353.5 146.5t-146.5 353.5v900zM371 1730q-30 -30 -71 -30
t-70.5 29.5t-29.5 70.5t30 71l400 400q29 29 70 29t70.5 -29.5t29.5 -70.5t-29 -70z" />
    <glyph glyph-name="Ucircumflex" unicode="&#xdb;" 
d="M0 1400q0 41 29.5 70.5t70.5 29.5t70.5 -29.5t29.5 -70.5v-900q0 -124 88 -212t212 -88t212 88t88 212v900q0 41 29.5 70.5t70.5 29.5t70.5 -29.5t29.5 -70.5v-900q0 -207 -146.5 -353.5t-353.5 -146.5t-353.5 146.5t-146.5 353.5v900zM501 2060l-330 -330
q-30 -30 -71 -30t-70.5 29.5t-29.5 70.5t30 71l400 400q29 29 70 29t71 -29l400 -400q29 -30 29 -71t-29.5 -70.5t-70.5 -29.5t-70 30z" />
    <glyph glyph-name="Udieresis" unicode="&#xdc;" 
d="M0 1400q0 41 29.5 70.5t70.5 29.5t70.5 -29.5t29.5 -70.5v-900q0 -124 88 -212t212 -88t212 88t88 212v900q0 41 29.5 70.5t70.5 29.5t70.5 -29.5t29.5 -70.5v-900q0 -207 -146.5 -353.5t-353.5 -146.5t-353.5 146.5t-146.5 353.5v900zM370.5 1870.5
q29.5 -29.5 29.5 -70.5t-29.5 -70.5t-70.5 -29.5t-70.5 29.5t-29.5 70.5t29.5 70.5t70.5 29.5t70.5 -29.5zM770.5 1870.5q29.5 -29.5 29.5 -70.5t-29.5 -70.5t-70.5 -29.5t-70.5 29.5t-29.5 70.5t29.5 70.5t70.5 29.5t70.5 -29.5z" />
    <glyph glyph-name="Yacute" unicode="&#xdd;" 
d="M400 716l-21 34l-339 550q-40 59 -40 100t29.5 70.5t70.5 29.5t70.5 -29.5t49.5 -70.5l280 -454l280 454q20 41 49.5 70.5t70.5 29.5t70.5 -29.5t29.5 -70.5t-40 -100l-339 -550l-21 -34v-616q0 -41 -29.5 -70.5t-70.5 -29.5t-70.5 29.5t-29.5 70.5v616zM371 1730
q-30 -30 -71 -30t-70.5 29.5t-29.5 70.5t30 71l400 400q29 29 70 29t70.5 -29.5t29.5 -70.5t-29 -70z" />
    <glyph glyph-name="Thorn" unicode="&#xde;" 
d="M575 1000h-375v-450h375q93 0 159 66t66 159t-66 159t-159 66zM200 1200h375q176 0 300.5 -124.5t124.5 -300.5t-124.5 -300.5t-300.5 -124.5h-375v-250q0 -41 -29.5 -70.5t-70.5 -29.5t-70.5 29.5t-29.5 70.5v1300q0 41 29.5 70.5t70.5 29.5t70.5 -29.5t29.5 -70.5v-200
z" />
    <glyph glyph-name="germandbls" unicode="&#xdf;" 
d="M500 0q-41 0 -70.5 29.5t-29.5 70.5t29.5 70.5t70.5 29.5h75q93 0 159 66t66 159t-66 159t-159 66h-75q-41 0 -70.5 29.5t-29.5 70.5t29.5 70.5t70.5 29.5h75q93 0 159 66t66 159t-66 159t-159 66h-150q-93 0 -159 -66t-66 -159v-975q0 -41 -29.5 -70.5t-70.5 -29.5
t-70.5 29.5t-29.5 70.5v975q0 176 124.5 300.5t300.5 124.5h150q176 0 300.5 -124.5t124.5 -300.5t-124 -300q-13 -13 -27 -25q14 -12 27 -24q124 -125 124 -301t-124.5 -300.5t-300.5 -124.5h-75z" />
    <glyph glyph-name="agrave" unicode="&#xe0;" 
d="M265 300l-55 -180q-20 -61 -44.5 -90.5t-65.5 -29.5t-70.5 29.5t-29.5 70.5q0 34 20 80l380 1240h2q5 28 28 50q29 30 70 30t71 -30q22 -22 27 -50h2l380 -1240q20 -46 20 -80q0 -41 -29.5 -70.5t-70.5 -29.5t-65.5 29.5t-44.5 90.5l-55 180h-470zM674 500l-174 572
l-174 -572h348zM230 2130q-30 29 -30 70t29.5 70.5t70.5 29.5t71 -29l400 -400q29 -30 29 -71t-29.5 -70.5t-70.5 -29.5t-70 30z" />
    <glyph glyph-name="aacute" unicode="&#xe1;" 
d="M265 300l-55 -180q-20 -61 -44.5 -90.5t-65.5 -29.5t-70.5 29.5t-29.5 70.5q0 34 20 80l380 1240h2q5 28 28 50q29 30 70 30t71 -30q22 -22 27 -50h2l380 -1240q20 -46 20 -80q0 -41 -29.5 -70.5t-70.5 -29.5t-65.5 29.5t-44.5 90.5l-55 180h-470zM674 500l-174 572
l-174 -572h348zM371 1730q-30 -30 -71 -30t-70.5 29.5t-29.5 70.5t30 71l400 400q29 29 70 29t70.5 -29.5t29.5 -70.5t-29 -70z" />
    <glyph glyph-name="acircumflex" unicode="&#xe2;" 
d="M265 300l-55 -180q-20 -61 -44.5 -90.5t-65.5 -29.5t-70.5 29.5t-29.5 70.5q0 34 20 80l380 1240h2q5 28 28 50q29 30 70 30t71 -30q22 -22 27 -50h2l380 -1240q20 -46 20 -80q0 -41 -29.5 -70.5t-70.5 -29.5t-65.5 29.5t-44.5 90.5l-55 180h-470zM674 500l-174 572
l-174 -572h348zM501 2060l-330 -330q-30 -30 -71 -30t-70.5 29.5t-29.5 70.5t30 71l400 400q29 29 70 29t71 -29l400 -400q29 -30 29 -71t-29.5 -70.5t-70.5 -29.5t-70 30z" />
    <glyph glyph-name="atilde" unicode="&#xe3;" 
d="M265 300l-55 -180q-20 -61 -44.5 -90.5t-65.5 -29.5t-70.5 29.5t-29.5 70.5q0 34 20 80l380 1240h2q5 28 28 50q29 30 70 30t71 -30q22 -22 27 -50h2l380 -1240q20 -46 20 -80q0 -41 -29.5 -70.5t-70.5 -29.5t-65.5 29.5t-44.5 90.5l-55 180h-470zM674 500l-174 572
l-174 -572h348zM625 1925q34 -25 75 -25t70.5 29.5t29.5 70.5t29.5 70.5t70.5 29.5t70.5 -29.5t29.5 -70.5q0 -124 -88 -212t-212 -88t-200 75l-125 100q-34 25 -75 25t-70.5 -29.5t-29.5 -70.5t-29.5 -70.5t-70.5 -29.5t-70.5 29.5t-29.5 70.5q0 124 88 212t212 88t200 -75
z" />
    <glyph glyph-name="adieresis" unicode="&#xe4;" 
d="M265 300l-55 -180q-20 -61 -44.5 -90.5t-65.5 -29.5t-70.5 29.5t-29.5 70.5q0 34 20 80l380 1240h2q5 28 28 50q29 30 70 30t71 -30q22 -22 27 -50h2l380 -1240q20 -46 20 -80q0 -41 -29.5 -70.5t-70.5 -29.5t-65.5 29.5t-44.5 90.5l-55 180h-470zM674 500l-174 572
l-174 -572h348zM370.5 1870.5q29.5 -29.5 29.5 -70.5t-29.5 -70.5t-70.5 -29.5t-70.5 29.5t-29.5 70.5t29.5 70.5t70.5 29.5t70.5 -29.5zM770.5 1870.5q29.5 -29.5 29.5 -70.5t-29.5 -70.5t-70.5 -29.5t-70.5 29.5t-29.5 70.5t29.5 70.5t70.5 29.5t70.5 -29.5z" />
    <glyph glyph-name="aring" unicode="&#xe5;" 
d="M265 300l-55 -180q-20 -61 -44.5 -90.5t-65.5 -29.5t-70.5 29.5t-29.5 70.5q0 34 20 80l380 1240h2q5 28 28 50q29 30 70 30t71 -30q22 -22 27 -50h2l380 -1240q20 -46 20 -80q0 -41 -29.5 -70.5t-70.5 -29.5t-65.5 29.5t-44.5 90.5l-55 180h-470zM674 500l-174 572
l-174 -572h348zM500 1700q-124 0 -212 88t-88 212t88 212t212 88t212 -88t88 -212t-88 -212t-212 -88zM570.5 1929.5q29.5 29.5 29.5 70.5t-29.5 70.5t-70.5 29.5t-70.5 -29.5t-29.5 -70.5t29.5 -70.5t70.5 -29.5t70.5 29.5z" />
    <glyph glyph-name="ae" unicode="&#xe6;" 
d="M1000 1500q41 0 70.5 -29.5t29.5 -70.5t-29.5 -70.5t-70.5 -29.5h-300v-450h200q41 0 70.5 -29.5t29.5 -70.5t-29.5 -70.5t-70.5 -29.5h-200v-450h300q41 0 70.5 -29.5t29.5 -70.5t-29.5 -70.5t-70.5 -29.5h-400q-41 0 -70.5 29.5t-29.5 70.5v200h-235l-55 -180
q-20 -61 -44.5 -90.5t-65.5 -29.5t-70.5 29.5t-29.5 70.5q0 34 20 80l380 1240h2q5 28 28 50q29 30 70 30h500zM500 1072l-174 -572h174v572z" />
    <glyph glyph-name="ccedilla" unicode="&#xe7;" 
d="M499 0q-206 0 -352 147q-147 146 -147 353v500q0 207 146.5 353.5t353.5 146.5t353.5 -146.5t146.5 -353.5q0 -41 -29.5 -70.5t-70.5 -29.5t-70.5 29.5t-29.5 70.5q0 124 -88 212t-212 88t-212 -88t-88 -212v-500q0 -124 88 -212t212 -88t212 88t88 212q0 41 29.5 70.5
t70.5 29.5t70.5 -29.5t29.5 -70.5q0 -207 -146 -353q-71 -71 -155 -107q1 -7 1 -15q0 -176 -124.5 -300.5t-300.5 -124.5h-75q-41 0 -70.5 29.5t-29.5 70.5t29.5 70.5t70.5 29.5h75q93 0 159 66q57 57 65 134z" />
    <glyph glyph-name="egrave" unicode="&#xe8;" 
d="M900 200q41 0 70.5 -29.5t29.5 -70.5t-29.5 -70.5t-70.5 -29.5h-800q-41 0 -70.5 29.5t-29.5 70.5v1300q0 41 29.5 70.5t70.5 29.5h800q41 0 70.5 -29.5t29.5 -70.5t-29.5 -70.5t-70.5 -29.5h-700v-450h600q41 0 70.5 -29.5t29.5 -70.5t-29.5 -70.5t-70.5 -29.5h-600
v-450h700zM230 2130q-30 29 -30 70t29.5 70.5t70.5 29.5t71 -29l400 -400q29 -30 29 -71t-29.5 -70.5t-70.5 -29.5t-70 30z" />
    <glyph glyph-name="eacute" unicode="&#xe9;" 
d="M900 200q41 0 70.5 -29.5t29.5 -70.5t-29.5 -70.5t-70.5 -29.5h-800q-41 0 -70.5 29.5t-29.5 70.5v1300q0 41 29.5 70.5t70.5 29.5h800q41 0 70.5 -29.5t29.5 -70.5t-29.5 -70.5t-70.5 -29.5h-700v-450h600q41 0 70.5 -29.5t29.5 -70.5t-29.5 -70.5t-70.5 -29.5h-600
v-450h700zM371 1730q-30 -30 -71 -30t-70.5 29.5t-29.5 70.5t30 71l400 400q29 29 70 29t70.5 -29.5t29.5 -70.5t-29 -70z" />
    <glyph glyph-name="ecircumflex" unicode="&#xea;" 
d="M900 200q41 0 70.5 -29.5t29.5 -70.5t-29.5 -70.5t-70.5 -29.5h-800q-41 0 -70.5 29.5t-29.5 70.5v1300q0 41 29.5 70.5t70.5 29.5h800q41 0 70.5 -29.5t29.5 -70.5t-29.5 -70.5t-70.5 -29.5h-700v-450h600q41 0 70.5 -29.5t29.5 -70.5t-29.5 -70.5t-70.5 -29.5h-600
v-450h700zM501 2060l-330 -330q-30 -30 -71 -30t-70.5 29.5t-29.5 70.5t30 71l400 400q29 29 70 29t71 -29l400 -400q29 -30 29 -71t-29.5 -70.5t-70.5 -29.5t-70 30z" />
    <glyph glyph-name="edieresis" unicode="&#xeb;" 
d="M900 200q41 0 70.5 -29.5t29.5 -70.5t-29.5 -70.5t-70.5 -29.5h-800q-41 0 -70.5 29.5t-29.5 70.5v1300q0 41 29.5 70.5t70.5 29.5h800q41 0 70.5 -29.5t29.5 -70.5t-29.5 -70.5t-70.5 -29.5h-700v-450h600q41 0 70.5 -29.5t29.5 -70.5t-29.5 -70.5t-70.5 -29.5h-600
v-450h700zM370.5 1870.5q29.5 -29.5 29.5 -70.5t-29.5 -70.5t-70.5 -29.5t-70.5 29.5t-29.5 70.5t29.5 70.5t70.5 29.5t70.5 -29.5zM770.5 1870.5q29.5 -29.5 29.5 -70.5t-29.5 -70.5t-70.5 -29.5t-70.5 29.5t-29.5 70.5t29.5 70.5t70.5 29.5t70.5 -29.5z" />
    <glyph glyph-name="igrave" unicode="&#xec;" 
d="M400 200v1100h-300q-41 0 -70.5 29.5t-29.5 70.5t29.5 70.5t70.5 29.5h800q41 0 70.5 -29.5t29.5 -70.5t-29.5 -70.5t-70.5 -29.5h-300v-1100h300q41 0 70.5 -29.5t29.5 -70.5t-29.5 -70.5t-70.5 -29.5h-800q-41 0 -70.5 29.5t-29.5 70.5t29.5 70.5t70.5 29.5h300z
M230 2130q-30 29 -30 70t29.5 70.5t70.5 29.5t71 -29l400 -400q29 -30 29 -71t-29.5 -70.5t-70.5 -29.5t-70 30z" />
    <glyph glyph-name="iacute" unicode="&#xed;" 
d="M400 200v1100h-300q-41 0 -70.5 29.5t-29.5 70.5t29.5 70.5t70.5 29.5h800q41 0 70.5 -29.5t29.5 -70.5t-29.5 -70.5t-70.5 -29.5h-300v-1100h300q41 0 70.5 -29.5t29.5 -70.5t-29.5 -70.5t-70.5 -29.5h-800q-41 0 -70.5 29.5t-29.5 70.5t29.5 70.5t70.5 29.5h300z
M371 1730q-30 -30 -71 -30t-70.5 29.5t-29.5 70.5t30 71l400 400q29 29 70 29t70.5 -29.5t29.5 -70.5t-29 -70z" />
    <glyph glyph-name="icircumflex" unicode="&#xee;" 
d="M400 200v1100h-300q-41 0 -70.5 29.5t-29.5 70.5t29.5 70.5t70.5 29.5h800q41 0 70.5 -29.5t29.5 -70.5t-29.5 -70.5t-70.5 -29.5h-300v-1100h300q41 0 70.5 -29.5t29.5 -70.5t-29.5 -70.5t-70.5 -29.5h-800q-41 0 -70.5 29.5t-29.5 70.5t29.5 70.5t70.5 29.5h300z
M501 2060l-330 -330q-30 -30 -71 -30t-70.5 29.5t-29.5 70.5t30 71l400 400q29 29 70 29t71 -29l400 -400q29 -30 29 -71t-29.5 -70.5t-70.5 -29.5t-70 30z" />
    <glyph glyph-name="idieresis" unicode="&#xef;" 
d="M400 200v1100h-300q-41 0 -70.5 29.5t-29.5 70.5t29.5 70.5t70.5 29.5h800q41 0 70.5 -29.5t29.5 -70.5t-29.5 -70.5t-70.5 -29.5h-300v-1100h300q41 0 70.5 -29.5t29.5 -70.5t-29.5 -70.5t-70.5 -29.5h-800q-41 0 -70.5 29.5t-29.5 70.5t29.5 70.5t70.5 29.5h300z
M370.5 1870.5q29.5 -29.5 29.5 -70.5t-29.5 -70.5t-70.5 -29.5t-70.5 29.5t-29.5 70.5t29.5 70.5t70.5 29.5t70.5 -29.5zM770.5 1870.5q29.5 -29.5 29.5 -70.5t-29.5 -70.5t-70.5 -29.5t-70.5 29.5t-29.5 70.5t29.5 70.5t70.5 29.5t70.5 -29.5z" />
    <glyph glyph-name="eth" unicode="&#xf0;" 
d="M200 650v-450h300q124 0 212 88t88 212v500q0 124 -88 212t-212 88h-300v-450h300q41 0 70.5 -29.5t29.5 -70.5t-29.5 -70.5t-70.5 -29.5h-300zM100 0q-41 0 -70.5 29.5t-29.5 70.5v1300q0 41 29.5 70.5t70.5 29.5h400q207 0 353.5 -146.5t146.5 -353.5v-500
q0 -207 -146.5 -353.5t-353.5 -146.5h-400z" />
    <glyph glyph-name="ntilde" unicode="&#xf1;" 
d="M220 1400l580 -941v941q0 41 29.5 70.5t70.5 29.5t70.5 -29.5t29.5 -70.5v-1300q0 -41 -29.5 -70.5t-70.5 -29.5t-70.5 29.5t-49.5 70.5l-580 941v-941q0 -41 -29.5 -70.5t-70.5 -29.5t-70.5 29.5t-29.5 70.5v1300q0 41 29.5 70.5t70.5 29.5t70.5 -29.5t49.5 -70.5z
M625 1925q34 -25 75 -25t70.5 29.5t29.5 70.5t29.5 70.5t70.5 29.5t70.5 -29.5t29.5 -70.5q0 -124 -88 -212t-212 -88t-200 75l-125 100q-34 25 -75 25t-70.5 -29.5t-29.5 -70.5t-29.5 -70.5t-70.5 -29.5t-70.5 29.5t-29.5 70.5q0 124 88 212t212 88t200 -75z" />
    <glyph glyph-name="ograve" unicode="&#xf2;" 
d="M1000 500q0 -207 -146.5 -353.5t-353.5 -146.5t-353.5 146.5t-146.5 353.5v500q0 207 146.5 353.5t353.5 146.5t353.5 -146.5t146.5 -353.5v-500zM200 500q0 -124 88 -212t212 -88t212 88t88 212v500q0 124 -88 212t-212 88t-212 -88t-88 -212v-500zM230 2130
q-30 29 -30 70t29.5 70.5t70.5 29.5t71 -29l400 -400q29 -30 29 -71t-29.5 -70.5t-70.5 -29.5t-70 30z" />
    <glyph glyph-name="oacute" unicode="&#xf3;" 
d="M1000 500q0 -207 -146.5 -353.5t-353.5 -146.5t-353.5 146.5t-146.5 353.5v500q0 207 146.5 353.5t353.5 146.5t353.5 -146.5t146.5 -353.5v-500zM200 500q0 -124 88 -212t212 -88t212 88t88 212v500q0 124 -88 212t-212 88t-212 -88t-88 -212v-500zM371 1730
q-30 -30 -71 -30t-70.5 29.5t-29.5 70.5t30 71l400 400q29 29 70 29t70.5 -29.5t29.5 -70.5t-29 -70z" />
    <glyph glyph-name="ocircumflex" unicode="&#xf4;" 
d="M1000 500q0 -207 -146.5 -353.5t-353.5 -146.5t-353.5 146.5t-146.5 353.5v500q0 207 146.5 353.5t353.5 146.5t353.5 -146.5t146.5 -353.5v-500zM200 500q0 -124 88 -212t212 -88t212 88t88 212v500q0 124 -88 212t-212 88t-212 -88t-88 -212v-500zM501 2060l-330 -330
q-30 -30 -71 -30t-70.5 29.5t-29.5 70.5t30 71l400 400q29 29 70 29t71 -29l400 -400q29 -30 29 -71t-29.5 -70.5t-70.5 -29.5t-70 30z" />
    <glyph glyph-name="otilde" unicode="&#xf5;" 
d="M1000 500q0 -207 -146.5 -353.5t-353.5 -146.5t-353.5 146.5t-146.5 353.5v500q0 207 146.5 353.5t353.5 146.5t353.5 -146.5t146.5 -353.5v-500zM200 500q0 -124 88 -212t212 -88t212 88t88 212v500q0 124 -88 212t-212 88t-212 -88t-88 -212v-500zM625 1925
q34 -25 75 -25t70.5 29.5t29.5 70.5t29.5 70.5t70.5 29.5t70.5 -29.5t29.5 -70.5q0 -124 -88 -212t-212 -88t-200 75l-125 100q-34 25 -75 25t-70.5 -29.5t-29.5 -70.5t-29.5 -70.5t-70.5 -29.5t-70.5 29.5t-29.5 70.5q0 124 88 212t212 88t200 -75z" />
    <glyph glyph-name="odieresis" unicode="&#xf6;" 
d="M1000 500q0 -207 -146.5 -353.5t-353.5 -146.5t-353.5 146.5t-146.5 353.5v500q0 207 146.5 353.5t353.5 146.5t353.5 -146.5t146.5 -353.5v-500zM200 500q0 -124 88 -212t212 -88t212 88t88 212v500q0 124 -88 212t-212 88t-212 -88t-88 -212v-500zM370.5 1870.5
q29.5 -29.5 29.5 -70.5t-29.5 -70.5t-70.5 -29.5t-70.5 29.5t-29.5 70.5t29.5 70.5t70.5 29.5t70.5 -29.5zM770.5 1870.5q29.5 -29.5 29.5 -70.5t-29.5 -70.5t-70.5 -29.5t-70.5 29.5t-29.5 70.5t29.5 70.5t70.5 29.5t70.5 -29.5z" />
    <glyph glyph-name="divide" unicode="&#xf7;" horiz-adv-x="1014" 
d="M87 647v140h839l1 -1v-139h-840zM398 408l82 84q15 14 29 14q13 0 31 -16l80 -86q12 -16 12 -29q0 -15 -14 -31l-80 -88q-20 -20 -29 -20q-16 0 -29 14l-88 101q-10 13 -10 26q0 15 16 31zM398 1101l82 84q15 14 29 14q13 0 31 -16l80 -86q12 -16 12 -29q0 -15 -14 -31
l-80 -88q-20 -20 -29 -20q-16 0 -29 14l-88 101q-10 13 -10 26q0 15 16 31z" />
    <glyph glyph-name="oslash" unicode="&#xf8;" 
d="M319 261q78 -61 181 -61q124 0 212 88t88 212v500q0 19 -2 37zM202 463l479 776q-78 61 -181 61q-124 0 -212 -88t-88 -212v-500q0 -19 2 -37zM932 1254q68 -113 68 -254v-500q0 -207 -146.5 -353.5t-353.5 -146.5q-161 0 -286 89q-18 -34 -43 -59q-30 -30 -71 -30
t-70.5 29.5t-29.5 70.5t40 100l28 46q-68 113 -68 254v500q0 207 146.5 353.5t353.5 146.5q161 0 286 -89q18 34 44 60q29 29 70 29t70.5 -29.5t29.5 -70.5t-40 -100z" />
    <glyph glyph-name="ugrave" unicode="&#xf9;" 
d="M0 1400q0 41 29.5 70.5t70.5 29.5t70.5 -29.5t29.5 -70.5v-900q0 -124 88 -212t212 -88t212 88t88 212v900q0 41 29.5 70.5t70.5 29.5t70.5 -29.5t29.5 -70.5v-900q0 -207 -146.5 -353.5t-353.5 -146.5t-353.5 146.5t-146.5 353.5v900zM230 2130q-30 29 -30 70t29.5 70.5
t70.5 29.5t71 -29l400 -400q29 -30 29 -71t-29.5 -70.5t-70.5 -29.5t-70 30z" />
    <glyph glyph-name="uacute" unicode="&#xfa;" 
d="M0 1400q0 41 29.5 70.5t70.5 29.5t70.5 -29.5t29.5 -70.5v-900q0 -124 88 -212t212 -88t212 88t88 212v900q0 41 29.5 70.5t70.5 29.5t70.5 -29.5t29.5 -70.5v-900q0 -207 -146.5 -353.5t-353.5 -146.5t-353.5 146.5t-146.5 353.5v900zM371 1730q-30 -30 -71 -30
t-70.5 29.5t-29.5 70.5t30 71l400 400q29 29 70 29t70.5 -29.5t29.5 -70.5t-29 -70z" />
    <glyph glyph-name="ucircumflex" unicode="&#xfb;" 
d="M0 1400q0 41 29.5 70.5t70.5 29.5t70.5 -29.5t29.5 -70.5v-900q0 -124 88 -212t212 -88t212 88t88 212v900q0 41 29.5 70.5t70.5 29.5t70.5 -29.5t29.5 -70.5v-900q0 -207 -146.5 -353.5t-353.5 -146.5t-353.5 146.5t-146.5 353.5v900zM501 2060l-330 -330
q-30 -30 -71 -30t-70.5 29.5t-29.5 70.5t30 71l400 400q29 29 70 29t71 -29l400 -400q29 -30 29 -71t-29.5 -70.5t-70.5 -29.5t-70 30z" />
    <glyph glyph-name="udieresis" unicode="&#xfc;" 
d="M0 1400q0 41 29.5 70.5t70.5 29.5t70.5 -29.5t29.5 -70.5v-900q0 -124 88 -212t212 -88t212 88t88 212v900q0 41 29.5 70.5t70.5 29.5t70.5 -29.5t29.5 -70.5v-900q0 -207 -146.5 -353.5t-353.5 -146.5t-353.5 146.5t-146.5 353.5v900zM370.5 1870.5
q29.5 -29.5 29.5 -70.5t-29.5 -70.5t-70.5 -29.5t-70.5 29.5t-29.5 70.5t29.5 70.5t70.5 29.5t70.5 -29.5zM770.5 1870.5q29.5 -29.5 29.5 -70.5t-29.5 -70.5t-70.5 -29.5t-70.5 29.5t-29.5 70.5t29.5 70.5t70.5 29.5t70.5 -29.5z" />
    <glyph glyph-name="yacute" unicode="&#xfd;" 
d="M400 716l-21 34l-339 550q-40 59 -40 100t29.5 70.5t70.5 29.5t70.5 -29.5t49.5 -70.5l280 -454l280 454q20 41 49.5 70.5t70.5 29.5t70.5 -29.5t29.5 -70.5t-40 -100l-339 -550l-21 -34v-616q0 -41 -29.5 -70.5t-70.5 -29.5t-70.5 29.5t-29.5 70.5v616zM371 1730
q-30 -30 -71 -30t-70.5 29.5t-29.5 70.5t30 71l400 400q29 29 70 29t70.5 -29.5t29.5 -70.5t-29 -70z" />
    <glyph glyph-name="thorn" unicode="&#xfe;" 
d="M575 1000h-375v-450h375q93 0 159 66t66 159t-66 159t-159 66zM200 1200h375q176 0 300.5 -124.5t124.5 -300.5t-124.5 -300.5t-300.5 -124.5h-375v-250q0 -41 -29.5 -70.5t-70.5 -29.5t-70.5 29.5t-29.5 70.5v1300q0 41 29.5 70.5t70.5 29.5t70.5 -29.5t29.5 -70.5v-200
z" />
    <glyph glyph-name="ydieresis" unicode="&#xff;" 
d="M400 716l-21 34l-339 550q-40 59 -40 100t29.5 70.5t70.5 29.5t70.5 -29.5t49.5 -70.5l280 -454l280 454q20 41 49.5 70.5t70.5 29.5t70.5 -29.5t29.5 -70.5t-40 -100l-339 -550l-21 -34v-616q0 -41 -29.5 -70.5t-70.5 -29.5t-70.5 29.5t-29.5 70.5v616zM370.5 1870.5
q29.5 -29.5 29.5 -70.5t-29.5 -70.5t-70.5 -29.5t-70.5 29.5t-29.5 70.5t29.5 70.5t70.5 29.5t70.5 -29.5zM770.5 1870.5q29.5 -29.5 29.5 -70.5t-29.5 -70.5t-70.5 -29.5t-70.5 29.5t-29.5 70.5t29.5 70.5t70.5 29.5t70.5 -29.5z" />
    <glyph glyph-name="circumflex" unicode="&#x2c6;" 
d="M501 2060l-330 -330q-30 -30 -71 -30t-70.5 29.5t-29.5 70.5t30 71l400 400q29 29 70 29t71 -29l400 -400q29 -30 29 -71t-29.5 -70.5t-70.5 -29.5t-70 30z" />
    <glyph glyph-name="tilde" unicode="&#x2dc;" 
d="M625 1925q34 -25 75 -25t70.5 29.5t29.5 70.5t29.5 70.5t70.5 29.5t70.5 -29.5t29.5 -70.5q0 -124 -88 -212t-212 -88t-200 75l-125 100q-34 25 -75 25t-70.5 -29.5t-29.5 -70.5t-29.5 -70.5t-70.5 -29.5t-70.5 29.5t-29.5 70.5q0 124 88 212t212 88t200 -75z" />
    <glyph glyph-name="endash" unicode="&#x2013;" 
d="M100 650q-41 0 -70.5 29.5t-29.5 70.5t29.5 70.5t70.5 29.5h800q41 0 70.5 -29.5t29.5 -70.5t-29.5 -70.5t-70.5 -29.5h-800z" />
    <glyph glyph-name="emdash" unicode="&#x2014;" 
d="M100 650q-41 0 -70.5 29.5t-29.5 70.5t29.5 70.5t70.5 29.5h800q41 0 70.5 -29.5t29.5 -70.5t-29.5 -70.5t-70.5 -29.5h-800z" />
    <glyph glyph-name="quoteleft" unicode="&#x2018;" 
d="M100 1400q0 41 29.5 70.5t70.5 29.5t70.5 -29.5t29.5 -70.5v-300q0 -41 -29.5 -70.5t-70.5 -29.5t-70.5 29.5t-29.5 70.5v300z" />
    <glyph glyph-name="quoteright" unicode="&#x2019;" 
d="M100 1400q0 41 29.5 70.5t70.5 29.5t70.5 -29.5t29.5 -70.5v-300q0 -41 -29.5 -70.5t-70.5 -29.5t-70.5 29.5t-29.5 70.5v300z" />
    <glyph glyph-name="quotesinglbase" unicode="&#x201a;" 
d="M100 100q0 41 29.5 70.5t70.5 29.5t70.5 -29.5t29.5 -70.5v-300q0 -41 -29.5 -70.5t-70.5 -29.5t-70.5 29.5t-29.5 70.5v300z" />
    <glyph glyph-name="quotedblleft" unicode="&#x201c;" 
d="M100 1400q0 41 29.5 70.5t70.5 29.5t70.5 -29.5t29.5 -70.5v-300q0 -41 -29.5 -70.5t-70.5 -29.5t-70.5 29.5t-29.5 70.5v300zM500 1400q0 41 29.5 70.5t70.5 29.5t70.5 -29.5t29.5 -70.5v-300q0 -41 -29.5 -70.5t-70.5 -29.5t-70.5 29.5t-29.5 70.5v300z" />
    <glyph glyph-name="quotedblright" unicode="&#x201d;" 
d="M100 1400q0 41 29.5 70.5t70.5 29.5t70.5 -29.5t29.5 -70.5v-300q0 -41 -29.5 -70.5t-70.5 -29.5t-70.5 29.5t-29.5 70.5v300zM500 1400q0 41 29.5 70.5t70.5 29.5t70.5 -29.5t29.5 -70.5v-300q0 -41 -29.5 -70.5t-70.5 -29.5t-70.5 29.5t-29.5 70.5v300z" />
    <glyph glyph-name="quotedblbase" unicode="&#x201e;" 
d="M100 150q0 41 29.5 70.5t70.5 29.5t70.5 -29.5t29.5 -70.5v-300q0 -41 -29.5 -70.5t-70.5 -29.5t-70.5 29.5t-29.5 70.5v300zM500 150q0 41 29.5 70.5t70.5 29.5t70.5 -29.5t29.5 -70.5v-300q0 -41 -29.5 -70.5t-70.5 -29.5t-70.5 29.5t-29.5 70.5v300z" />
    <glyph glyph-name="dagger" unicode="&#x2020;" horiz-adv-x="1014" 
d="M486 1022q-8 97 -54 178q-57 101 -57 129q0 49 36 78.5t96 29.5q57 0 94.5 -27.5t37.5 -71.5q0 -32 -55 -137q-46 -85 -55 -179q96 8 177 54q101 57 129 57q49 0 79 -36t30 -96q0 -57 -27.5 -94.5t-72.5 -37.5q-32 0 -136 55q-85 46 -179 57q8 -176 110 -277
q-106 -460 -112 -974h-38q-6 514 -114 974q102 101 111 277q-96 -10 -178 -55q-101 -57 -129 -57q-49 0 -78.5 36t-29.5 96q0 57 27.5 94.5t71.5 37.5q32 0 137 -56q85 -46 179 -55z" />
    <glyph glyph-name="daggerdbl" unicode="&#x2021;" horiz-adv-x="1014" 
d="M528 186q94 11 179 57q104 55 136 55q45 0 72.5 -37.5t27.5 -94.5q0 -60 -30 -96t-79 -36q-28 0 -129 57q-81 46 -177 54q9 -94 55 -179q55 -105 55 -137q0 -44 -37.5 -71.5t-94.5 -27.5q-60 0 -96 29.5t-36 78.5q0 28 57 129q46 81 54 178q-94 -9 -179 -55
q-105 -56 -137 -56q-44 0 -71.5 37.5t-27.5 94.5q0 60 29.5 96t78.5 36q28 0 129 -57q82 -45 178 -55q-9 226 -111 398q102 171 111 397q-96 -10 -178 -55q-101 -57 -129 -57q-49 0 -78.5 36t-29.5 96q0 57 27.5 94.5t71.5 37.5q32 0 137 -56q85 -46 179 -55q-8 97 -54 178
q-57 101 -57 129q0 49 36 78.5t96 29.5q57 0 94.5 -27.5t37.5 -71.5q0 -32 -55 -137q-46 -85 -55 -179q96 8 177 54q101 57 129 57q49 0 79 -36t30 -96q0 -57 -27.5 -94.5t-72.5 -37.5q-32 0 -136 55q-85 46 -179 57q8 -226 110 -397q-102 -172 -110 -398z" />
    <glyph glyph-name="bullet" unicode="&#x2022;" horiz-adv-x="1024" 
d="M216 718q0 123 87 209t210 86q122 0 208.5 -86.5t86.5 -208.5t-87.5 -209.5t-209.5 -87.5q-123 0 -209 87t-86 210z" />
    <glyph glyph-name="ellipsis" unicode="&#x2026;" 
d="M270.5 170.5q29.5 -29.5 29.5 -70.5t-29.5 -70.5t-70.5 -29.5t-70.5 29.5t-29.5 70.5t29.5 70.5t70.5 29.5t70.5 -29.5zM670.5 170.5q29.5 -29.5 29.5 -70.5t-29.5 -70.5t-70.5 -29.5t-70.5 29.5t-29.5 70.5t29.5 70.5t70.5 29.5t70.5 -29.5zM1070.5 170.5
q29.5 -29.5 29.5 -70.5t-29.5 -70.5t-70.5 -29.5t-70.5 29.5t-29.5 70.5t29.5 70.5t70.5 29.5t70.5 -29.5z" />
    <glyph glyph-name="guilsinglleft" unicode="&#x2039;" 
d="M870 320q30 -29 30 -70t-29.5 -70.5t-70.5 -29.5t-71 29l-500 500q-29 30 -29 71t30 71l499 499q30 30 71 30t70.5 -29.5t29.5 -70.5t-30 -71l-429 -429z" />
    <glyph glyph-name="guilsinglright" unicode="&#x203a;" 
d="M660 750l-430 429q-30 30 -30 71t29.5 70.5t70.5 29.5t71 -30l500 -499q29 -30 29 -71t-29 -71l-500 -500q-30 -29 -71 -29t-70.5 29.5t-29.5 70.5t30 70z" />
    <glyph glyph-name="Euro" unicode="&#x20ac;" 
d="M175 1000v175q0 135 95 230t230 95h175q135 0 230 -95t95 -230q0 -41 -29.5 -70.5t-70.5 -29.5t-70.5 29.5t-29.5 70.5q0 52 -36.5 88.5t-88.5 36.5h-175q-52 0 -88.5 -36.5t-36.5 -88.5v-175h225q41 0 70.5 -29.5t29.5 -70.5t-29.5 -70.5t-70.5 -29.5h-225v-100h225
q41 0 70.5 -29.5t29.5 -70.5t-29.5 -70.5t-70.5 -29.5h-225v-175q0 -52 36.5 -88.5t88.5 -36.5h175q52 0 89 37q27 27 34 63h2v50q0 41 29.5 70.5t70.5 29.5t70.5 -29.5t29.5 -70.5v-50h-1q-8 -119 -94 -205q-95 -95 -230 -95h-175q-135 0 -230 95q-86 86 -94 205h-1v200
h-75q-41 0 -70.5 29.5t-29.5 70.5t29.5 70.5t70.5 29.5h75v100h-75q-41 0 -70.5 29.5t-29.5 70.5t29.5 70.5t70.5 29.5h75z" />
    <glyph glyph-name="trademark" unicode="&#x2122;" horiz-adv-x="1300" 
d="M300 1400v-600q0 -20 -14.5 -35t-35.5 -15q-20 0 -35 15t-15 35v600h-150q-20 0 -35 15t-15 35q0 21 15 35.5t35 14.5h400q21 0 35.5 -14.5t14.5 -35.5q0 -20 -14.5 -35t-35.5 -15h-150zM1100 1450v-650q0 -20 -14.5 -35t-35.5 -15q-20 0 -35 15t-15 35v317l-100 -327h-1
q-2 -14 -13 -25q-15 -15 -36 -15q-20 0 -35 15q-11 11 -14 25h-1l-100 327v-317q0 -20 -14.5 -35t-35.5 -15q-20 0 -35 15t-15 35v650q0 21 15 36q15 14 35 14q21 0 36 -14q13 -14 19 -46l145 -476l145 476q13 34 23 46q12 14 32 14q21 0 35.5 -14.5t14.5 -35.5z" />
    <glyph glyph-name="OE" unicode="&#x152;" 
d="M500 1150q0 62 -44 106t-106 44t-106 -44t-44 -106v-800q0 -62 44 -106t106 -44t106 44t44 106v800zM519 1457q5 7 11 13q29 30 70 30h400q41 0 70.5 -29.5t29.5 -70.5t-29.5 -70.5t-70.5 -29.5h-300v-450h200q41 0 70.5 -29.5t29.5 -70.5t-29.5 -70.5t-70.5 -29.5h-200
v-450h300q41 0 70.5 -29.5t29.5 -70.5t-29.5 -70.5t-70.5 -29.5h-400q-41 0 -70 30q-7 6 -11 12q-76 -42 -169 -42q-145 0 -247.5 102.5t-102.5 247.5v800q0 145 102.5 247.5t247.5 102.5q94 0 169 -43z" />
    <glyph glyph-name="oe" unicode="&#x153;" 
d="M500 1150q0 62 -44 106t-106 44t-106 -44t-44 -106v-800q0 -62 44 -106t106 -44t106 44t44 106v800zM519 1457q5 7 11 13q29 30 70 30h400q41 0 70.5 -29.5t29.5 -70.5t-29.5 -70.5t-70.5 -29.5h-300v-450h200q41 0 70.5 -29.5t29.5 -70.5t-29.5 -70.5t-70.5 -29.5h-200
v-450h300q41 0 70.5 -29.5t29.5 -70.5t-29.5 -70.5t-70.5 -29.5h-400q-41 0 -70 30q-7 6 -11 12q-76 -42 -169 -42q-145 0 -247.5 102.5t-102.5 247.5v800q0 145 102.5 247.5t247.5 102.5q94 0 169 -43z" />
    <glyph glyph-name="perthousand" unicode="&#x2030;" horiz-adv-x="1650" 
d="M763.5 336.5q36.5 36.5 36.5 88.5t-36.5 88.5t-88.5 36.5t-88.5 -36.5t-36.5 -88.5t36.5 -88.5t88.5 -36.5t88.5 36.5zM413.5 986.5q36.5 36.5 36.5 88.5t-36.5 88.5t-88.5 36.5t-88.5 -36.5t-36.5 -88.5t36.5 -88.5t88.5 -36.5t88.5 36.5zM1036.5 513.5
q-36.5 -36.5 -36.5 -88.5t36.5 -88.5t88.5 -36.5t88.5 36.5t36.5 88.5t-36.5 88.5t-88.5 36.5t-88.5 -36.5zM900 190q-94 -90 -225 -90q-135 0 -230 95q-60 60 -82 136l-143 -231q-20 -41 -49.5 -70.5t-70.5 -29.5t-70.5 29.5t-29.5 70.5t40 100l342 555q-28 -5 -57 -5
q-135 0 -230 95t-95 230t95 230t230 95t230 -95q60 -60 82 -136l143 231q20 41 49.5 70.5t70.5 29.5t70.5 -29.5t29.5 -70.5t-40 -100l-342 -555q28 5 57 5q131 0 225 -90q94 90 225 90q135 0 230 -95t95 -230t-95 -230t-230 -95q-131 0 -225 90z" />
  </font>
</defs>
</svg>
