<?xml version="1.0" encoding="UTF-8" standalone="no"?>
<!-- Created with Inkscape (http://www.inkscape.org/) -->

<svg
   xmlns:dc="http://purl.org/dc/elements/1.1/"
   xmlns:cc="http://creativecommons.org/ns#"
   xmlns:rdf="http://www.w3.org/1999/02/22-rdf-syntax-ns#"
   xmlns:svg="http://www.w3.org/2000/svg"
   xmlns="http://www.w3.org/2000/svg"
   xmlns:sodipodi="http://sodipodi.sourceforge.net/DTD/sodipodi-0.dtd"
   xmlns:inkscape="http://www.inkscape.org/namespaces/inkscape"
   width="700"
   height="700"
   viewBox="0 0 700.00001 700.00001"
   id="svg2"
   version="1.1"
   inkscape:version="0.91 r13725"
   sodipodi:docname="tid.svg">
  <defs
     id="defs4" />
  <sodipodi:namedview
     id="base"
     pagecolor="#ffffff"
     bordercolor="#666666"
     borderopacity="1.0"
     inkscape:pageopacity="0.0"
     inkscape:pageshadow="2"
     inkscape:zoom="0.69111328"
     inkscape:cx="589.81463"
     inkscape:cy="449.42228"
     inkscape:document-units="px"
     inkscape:current-layer="layer1"
     showgrid="false"
     units="px"
     inkscape:window-width="1712"
     inkscape:window-height="1160"
     inkscape:window-x="1006"
     inkscape:window-y="93"
     inkscape:window-maximized="0" />
  <metadata
     id="metadata7">
    <rdf:RDF>
      <cc:Work
         rdf:about="">
        <dc:format>image/svg+xml</dc:format>
        <dc:type
           rdf:resource="http://purl.org/dc/dcmitype/StillImage" />
        <dc:title></dc:title>
      </cc:Work>
    </rdf:RDF>
  </metadata>
  <g
     inkscape:label="Layer 1"
     inkscape:groupmode="layer"
     id="layer1"
     transform="translate(0,-352.36214)">
    <path
       style="color:#000000;clip-rule:nonzero;display:inline;overflow:visible;visibility:visible;opacity:1;isolation:auto;mix-blend-mode:normal;color-interpolation:sRGB;color-interpolation-filters:linearRGB;solid-color:#000000;solid-opacity:1;fill:#000000;fill-opacity:1;fill-rule:nonzero;stroke:#ffffff;stroke-width:0.52542698;stroke-linecap:round;stroke-linejoin:miter;stroke-miterlimit:4;stroke-dasharray:none;stroke-dashoffset:0;stroke-opacity:0.8;marker:none;color-rendering:auto;image-rendering:auto;shape-rendering:auto;text-rendering:auto;enable-background:accumulate"
       d="M 699.7373,702.36212 A 349.7373,349.73727 0 0 1 350,1052.0994 349.7373,349.73727 0 0 1 0.26269531,702.36212 349.7373,349.73727 0 0 1 350,352.62485 349.7373,349.73727 0 0 1 699.7373,702.36212 Z"
       id="path8200" />
    <path
       inkscape:connector-curvature="0"
       id="path8112"
       style="font-style:normal;font-variant:normal;font-weight:bold;font-stretch:normal;font-size:156.25px;line-height:125%;font-family:Instruction;-inkscape-font-specification:'Instruction Bold';letter-spacing:0px;word-spacing:0px;fill:#ffffff;fill-opacity:1;stroke:none;stroke-width:1px;stroke-linecap:butt;stroke-linejoin:miter;stroke-opacity:1"
       d="m 197.40074,529.72779 0,90.02685 q 0,3.66211 -2.74658,6.40869 -2.74659,2.74658 -6.79017,2.74658 -4.04357,0 -6.79016,-2.74658 -2.74658,-2.74658 -2.74658,-6.40869 l 0,-90.02685 -20.98083,0 q -4.04358,0 -6.79016,-2.74659 -2.74659,-2.74658 -2.74659,-6.40869 0,-3.66211 2.74659,-6.40869 2.74658,-2.74658 6.79016,-2.74658 l 61.03515,0 q 4.04358,0 6.79016,2.74658 2.74659,2.74658 2.74659,6.40869 0,3.66211 -2.74659,6.40869 -2.74658,2.74659 -6.79016,2.74659 l -20.98083,0 z" />
    <path
       inkscape:connector-curvature="0"
       id="path8114"
       style="font-style:normal;font-variant:normal;font-weight:bold;font-stretch:normal;font-size:156.25px;line-height:125%;font-family:Instruction;-inkscape-font-specification:'Instruction Bold';letter-spacing:0px;word-spacing:0px;fill:#ffffff;fill-opacity:1;stroke:none;stroke-width:1px;stroke-linecap:butt;stroke-linejoin:miter;stroke-opacity:1"
       d="m 301.55012,579.31885 -41.96167,0 0,40.43579 q 0,3.66211 -2.74658,6.40869 -2.74658,2.74658 -6.79016,2.74658 -4.04358,0 -6.79016,-2.74658 -2.74659,-2.74658 -2.74659,-6.40869 l 0,-99.18213 q 0,-3.66211 2.74659,-6.40869 2.74658,-2.74658 6.79016,-2.74658 4.04358,0 6.79016,2.74658 2.74658,2.74658 2.74658,6.40869 l 0,40.43579 41.96167,0 0,-40.43579 q 0,-3.66211 2.74658,-6.40869 2.74658,-2.74658 6.79016,-2.74658 4.04358,0 6.79016,2.74658 2.74659,2.74658 2.74659,6.40869 l 0,99.18213 q 0,3.66211 -2.74659,6.40869 -2.74658,2.74658 -6.79016,2.74658 -4.04358,0 -6.79016,-2.74658 -2.74658,-2.74658 -2.74658,-6.40869 l 0,-40.43579 z" />
    <path
       inkscape:connector-curvature="0"
       id="path8116"
       style="font-style:normal;font-variant:normal;font-weight:bold;font-stretch:normal;font-size:156.25px;line-height:125%;font-family:Instruction;-inkscape-font-specification:'Instruction Bold';letter-spacing:0px;word-spacing:0px;fill:#ffffff;fill-opacity:1;stroke:none;stroke-width:1px;stroke-linecap:butt;stroke-linejoin:miter;stroke-opacity:1"
       d="m 403.79222,610.59937 q 4.04358,0 6.79016,2.74658 2.74658,2.74658 2.74658,6.40869 0,3.66211 -2.74658,6.40869 -2.74658,2.74658 -6.79016,2.74658 l -61.03516,0 q -4.04358,0 -6.79016,-2.74658 -2.74658,-2.74658 -2.74658,-6.40869 l 0,-99.18213 q 0,-3.66211 2.74658,-6.40869 2.74658,-2.74658 6.79016,-2.74658 l 61.03516,0 q 4.04358,0 6.79016,2.74658 2.74658,2.74658 2.74658,6.40869 0,3.66211 -2.74658,6.40869 -2.74658,2.74659 -6.79016,2.74659 l -51.49842,0 0,31.28051 43.86902,0 q 4.04358,0 6.79016,2.74659 2.74659,2.74658 2.74659,6.40869 0,3.66211 -2.74659,6.40869 -2.74658,2.74658 -6.79016,2.74658 l -43.86902,0 0,31.28052 51.49842,0 z" />
    <path
       inkscape:connector-curvature="0"
       id="path8118"
       style="font-style:normal;font-variant:normal;font-weight:bold;font-stretch:normal;font-size:156.25px;line-height:125%;font-family:Instruction;-inkscape-font-specification:'Instruction Bold';letter-spacing:0px;word-spacing:0px;fill:#ffffff;fill-opacity:1;stroke:none;stroke-width:1px;stroke-linecap:butt;stroke-linejoin:miter;stroke-opacity:1"
       d="m 178.32725,740.91187 0,-80.87158 -20.98083,0 q -4.04358,0 -6.79016,-2.74659 -2.74659,-2.74658 -2.74659,-6.40869 0,-3.66211 2.74659,-6.40869 2.74658,-2.74658 6.79016,-2.74658 l 61.03515,0 q 4.04358,0 6.79016,2.74658 2.74659,2.74658 2.74659,6.40869 0,3.66211 -2.74659,6.40869 -2.74658,2.74659 -6.79016,2.74659 l -20.98083,0 0,80.87158 20.98083,0 q 4.04358,0 6.79016,2.74658 2.74659,2.74658 2.74659,6.40869 0,3.66211 -2.74659,6.40869 -2.74658,2.74658 -6.79016,2.74658 l -61.03515,0 q -4.04358,0 -6.79016,-2.74658 -2.74659,-2.74658 -2.74659,-6.40869 0,-3.66211 2.74659,-6.40869 2.74658,-2.74658 6.79016,-2.74658 l 20.98083,0 z" />
    <path
       inkscape:connector-curvature="0"
       id="path8120"
       style="font-style:normal;font-variant:normal;font-weight:bold;font-stretch:normal;font-size:156.25px;line-height:125%;font-family:Instruction;-inkscape-font-specification:'Instruction Bold';letter-spacing:0px;word-spacing:0px;fill:#ffffff;fill-opacity:1;stroke:none;stroke-width:1px;stroke-linecap:butt;stroke-linejoin:miter;stroke-opacity:1"
       d="m 256.68931,644.40003 q 2.67029,2.59399 4.27246,5.87463 l 40.58838,65.84168 0,-65.23133 q 0,-3.66211 2.74658,-6.40869 2.74658,-2.74658 6.79016,-2.74658 4.04358,0 6.79016,2.74658 2.74659,2.74658 2.74659,6.40869 l 0,99.18213 q 0,3.66211 -2.74659,6.40869 -2.74658,2.74658 -6.79016,2.74658 -4.04358,0 -6.71386,-2.59399 -2.594,-2.67029 -4.19617,-5.95093 l -40.58838,-65.84167 0,65.23132 q 0,3.66211 -2.74658,6.40869 -2.74658,2.74658 -6.79016,2.74658 -4.04358,0 -6.79016,-2.74658 -2.74659,-2.74658 -2.74659,-6.40869 l 0,-99.18213 q 0,-3.66211 2.74659,-6.40869 2.74658,-2.74658 6.79016,-2.74658 4.04358,0 6.63757,2.67029 z" />
    <path
       inkscape:connector-curvature="0"
       id="path8122"
       style="font-style:normal;font-variant:normal;font-weight:bold;font-stretch:normal;font-size:156.25px;line-height:125%;font-family:Instruction;-inkscape-font-specification:'Instruction Bold';letter-spacing:0px;word-spacing:0px;fill:#ffffff;fill-opacity:1;stroke:none;stroke-width:1px;stroke-linecap:butt;stroke-linejoin:miter;stroke-opacity:1"
       d="m 382.81138,660.04029 0,90.02685 q 0,3.66211 -2.74658,6.40869 -2.74658,2.74658 -6.79016,2.74658 -4.04358,0 -6.79016,-2.74658 -2.74658,-2.74658 -2.74658,-6.40869 l 0,-90.02685 -20.98084,0 q -4.04358,0 -6.79016,-2.74659 -2.74658,-2.74658 -2.74658,-6.40869 0,-3.66211 2.74658,-6.40869 2.74658,-2.74658 6.79016,-2.74658 l 61.03516,0 q 4.04358,0 6.79016,2.74658 2.74658,2.74658 2.74658,6.40869 0,3.66211 -2.74658,6.40869 -2.74658,2.74659 -6.79016,2.74659 l -20.98084,0 z" />
    <path
       inkscape:connector-curvature="0"
       id="path8124"
       style="font-style:normal;font-variant:normal;font-weight:bold;font-stretch:normal;font-size:156.25px;line-height:125%;font-family:Instruction;-inkscape-font-specification:'Instruction Bold';letter-spacing:0px;word-spacing:0px;fill:#ffffff;fill-opacity:1;stroke:none;stroke-width:1px;stroke-linecap:butt;stroke-linejoin:miter;stroke-opacity:1"
       d="m 157.34642,889.53491 q -4.04358,0 -6.79016,-2.74658 -2.74659,-2.74658 -2.74659,-6.40869 l 0,-99.18213 q 0,-3.66211 2.74659,-6.40869 2.74658,-2.74658 6.79016,-2.74658 l 30.51757,0 q 16.70838,0 28.38135,11.67297 11.67298,11.67298 11.67298,27.99988 l 0,38.14697 q 0,16.32691 -11.67298,27.99988 -11.67297,11.67297 -28.38135,11.67297 l -30.51757,0 z m 9.53674,-99.18212 0,80.87158 20.98083,0 q 8.54493,0 14.72474,-6.17981 6.2561,-6.25611 6.2561,-15.1825 l 0,-38.14697 q 0,-8.92639 -6.2561,-15.1062 -6.17981,-6.2561 -14.72474,-6.2561 l -20.98083,0 z" />
    <path
       inkscape:connector-curvature="0"
       id="path8126"
       style="font-style:normal;font-variant:normal;font-weight:bold;font-stretch:normal;font-size:156.25px;line-height:125%;font-family:Instruction;-inkscape-font-specification:'Instruction Bold';letter-spacing:0px;word-spacing:0px;fill:#ffffff;fill-opacity:1;stroke:none;stroke-width:1px;stroke-linecap:butt;stroke-linejoin:miter;stroke-opacity:1"
       d="m 310.93428,871.22437 q 4.04358,0 6.79016,2.74658 2.74658,2.74658 2.74658,6.40869 0,3.66211 -2.74658,6.40869 -2.74658,2.74658 -6.79016,2.74658 l -61.03516,0 q -4.04358,0 -6.79016,-2.74658 -2.74658,-2.74658 -2.74658,-6.40869 l 0,-99.18213 q 0,-3.66211 2.74658,-6.40869 2.74658,-2.74658 6.79016,-2.74658 l 61.03516,0 q 4.04358,0 6.79016,2.74658 2.74658,2.74658 2.74658,6.40869 0,3.66211 -2.74658,6.40869 -2.74658,2.74659 -6.79016,2.74659 l -51.49842,0 0,31.28051 43.86902,0 q 4.04358,0 6.79016,2.74659 2.74659,2.74658 2.74659,6.40869 0,3.66211 -2.74659,6.40869 -2.74658,2.74658 -6.79016,2.74658 l -43.86902,0 0,31.28052 51.49842,0 z" />
    <path
       inkscape:connector-curvature="0"
       id="path8128"
       style="font-style:normal;font-variant:normal;font-weight:bold;font-stretch:normal;font-size:156.25px;line-height:125%;font-family:Instruction;-inkscape-font-specification:'Instruction Bold';letter-spacing:0px;word-spacing:0px;fill:#ffffff;fill-opacity:1;stroke:none;stroke-width:1px;stroke-linecap:butt;stroke-linejoin:miter;stroke-opacity:1"
       d="m 372.96946,889.53491 q -4.04358,0 -6.79016,-2.89917 -2.13623,-1.98364 -2.36511,-3.20434 l -29.29688,-95.7489 q -1.60217,-3.66211 -1.60217,-6.48499 0,-3.66211 2.74658,-6.40869 2.74659,-2.74658 6.79017,-2.74658 4.11987,0 6.33239,2.74658 2.28882,2.67029 3.89099,7.5531 l 20.29419,66.60462 20.29419,-66.60462 q 1.60218,-4.88281 3.8147,-7.5531 2.28882,-2.74658 6.40869,-2.74658 4.04358,0 6.79016,2.74658 2.74658,2.74658 2.74658,6.40869 0,2.82288 -1.60217,6.48499 l -29.29687,95.7489 q -0.22889,1.2207 -2.36512,3.35693 -2.74658,2.74658 -6.79016,2.74658 z" />
    <path
       inkscape:connector-curvature="0"
       id="path8188"
       style="font-style:normal;font-variant:normal;font-weight:bold;font-stretch:normal;font-size:156.25px;line-height:125%;font-family:Instruction;-inkscape-font-specification:'Instruction Bold';letter-spacing:0px;word-spacing:0px;fill:#ffffff;fill-opacity:1;stroke:none;stroke-width:1px;stroke-linecap:butt;stroke-linejoin:miter;stroke-opacity:1"
       d="m 551.53254,888.37444 c 2.69571,0 4.9591,0.91553 6.79016,2.74658 1.83105,1.83105 2.74658,3.96728 2.74658,6.40869 0,2.44141 -0.91553,4.57764 -2.74658,6.40869 -1.83106,1.83105 -4.09445,2.74658 -6.79016,2.74658 l -113.03516,0 c -2.69572,0 -4.95911,-0.91553 -6.79016,-2.74658 -1.83105,-1.83105 -2.74658,-3.96728 -2.74658,-6.40869 0,-2.44141 0.91553,-4.57764 2.74658,-6.40869 1.83105,-1.83105 4.09444,-2.74658 6.79016,-2.74658 z"
       sodipodi:nodetypes="sssssssssss" />
  </g>
</svg>
